<mxfile host="65bd71144e" pages="6">
    <diagram id="d6W-wYh8GM8gRq5jHxiZ" name="Main">
        <mxGraphModel dx="321" dy="456" grid="1" gridSize="10" guides="1" tooltips="1" connect="1" arrows="1" fold="1" page="1" pageScale="1" pageWidth="850" pageHeight="1100" math="0" shadow="0">
            <root>
                <mxCell id="0"/>
                <mxCell id="1" parent="0"/>
                <mxCell id="25" value="Content" parent="0"/>
                <mxCell id="26" value="Sharpe Forecast Evaluation" style="swimlane;" parent="25" vertex="1">
                    <mxGeometry x="325" y="125" width="200" height="850" as="geometry">
                        <mxRectangle x="325" y="200" width="190" height="23" as="alternateBounds"/>
                    </mxGeometry>
                </mxCell>
                <object label="Initiliaze" hedietLinkedDataV1_path="../ampl-runner.py" hedietLinkedDataV1_start_col_x-num="13" hedietLinkedDataV1_start_line_x-num="31" hedietLinkedDataV1_end_col_x-num="13" hedietLinkedDataV1_end_line_x-num="31" id="27">
                    <mxCell style="rounded=1;whiteSpace=wrap;html=1;" parent="26" vertex="1">
                        <mxGeometry x="40" y="57" width="120" height="60" as="geometry"/>
                    </mxCell>
                </object>
                <UserObject label="Data Collecting" id="28">
                    <mxCell style="whiteSpace=wrap;html=1;rounded=1;" parent="26" vertex="1">
                        <mxGeometry x="40" y="197" width="120" height="60" as="geometry"/>
                    </mxCell>
                </UserObject>
                <UserObject label="Data Wrangling" id="29">
                    <mxCell style="whiteSpace=wrap;html=1;rounded=1;" parent="26" vertex="1">
                        <mxGeometry x="40" y="337" width="120" height="60" as="geometry"/>
                    </mxCell>
                </UserObject>
                <UserObject label="Optimizer Modelling" id="30">
                    <mxCell style="whiteSpace=wrap;html=1;rounded=1;" parent="26" vertex="1">
                        <mxGeometry x="40" y="477" width="120" height="60" as="geometry"/>
                    </mxCell>
                </UserObject>
                <mxCell id="31" value="Data Result Analysis" style="whiteSpace=wrap;html=1;rounded=1;" parent="26" vertex="1">
                    <mxGeometry x="40" y="617" width="120" height="60" as="geometry"/>
                </mxCell>
                <UserObject label="Data Result Visualization" id="32">
                    <mxCell style="whiteSpace=wrap;html=1;rounded=1;" parent="26" vertex="1">
                        <mxGeometry x="40" y="757" width="120" height="60" as="geometry"/>
                    </mxCell>
                </UserObject>
                <mxCell id="33" style="edgeStyle=none;html=1;" parent="26" source="27" target="28" edge="1">
                    <mxGeometry relative="1" as="geometry"/>
                </mxCell>
                <mxCell id="34" value="" style="edgeStyle=none;html=1;" parent="26" source="28" target="29" edge="1">
                    <mxGeometry relative="1" as="geometry"/>
                </mxCell>
                <mxCell id="35" value="" style="edgeStyle=none;html=1;" parent="26" source="29" target="30" edge="1">
                    <mxGeometry relative="1" as="geometry"/>
                </mxCell>
                <mxCell id="36" value="" style="edgeStyle=none;html=1;" parent="26" source="30" target="31" edge="1">
                    <mxGeometry relative="1" as="geometry"/>
                </mxCell>
                <mxCell id="37" value="" style="edgeStyle=none;html=1;" parent="26" source="31" target="32" edge="1">
                    <mxGeometry relative="1" as="geometry"/>
                </mxCell>
            </root>
        </mxGraphModel>
    </diagram>
    <diagram id="q5zxwxofEq4he2tpK50l" name="Full View">
        <mxGraphModel dx="1129" dy="456" grid="1" gridSize="10" guides="1" tooltips="1" connect="1" arrows="1" fold="1" page="1" pageScale="1" pageWidth="850" pageHeight="1100" math="0" shadow="0">
            <root>
                <mxCell id="uuZVunNFDgJ9g0-95PEn-0"/>
                <mxCell id="uuZVunNFDgJ9g0-95PEn-1" parent="uuZVunNFDgJ9g0-95PEn-0"/>
                <mxCell id="-L7iNUpzvXrhB3CWB1b3-9" value="Content" parent="uuZVunNFDgJ9g0-95PEn-0"/>
                <mxCell id="-L7iNUpzvXrhB3CWB1b3-10" value="" style="edgeStyle=none;html=1;" parent="-L7iNUpzvXrhB3CWB1b3-9" source="-L7iNUpzvXrhB3CWB1b3-11" target="-L7iNUpzvXrhB3CWB1b3-12" edge="1">
                    <mxGeometry relative="1" as="geometry"/>
                </mxCell>
                <mxCell id="-L7iNUpzvXrhB3CWB1b3-11" value="Libraries" style="rounded=0;whiteSpace=wrap;html=1;" parent="-L7iNUpzvXrhB3CWB1b3-9" vertex="1">
                    <mxGeometry x="267" y="50" width="120" height="60" as="geometry"/>
                </mxCell>
                <mxCell id="-L7iNUpzvXrhB3CWB1b3-12" value="Logger" style="whiteSpace=wrap;html=1;rounded=0;" parent="-L7iNUpzvXrhB3CWB1b3-9" vertex="1">
                    <mxGeometry x="267" y="175" width="120" height="60" as="geometry"/>
                </mxCell>
                <mxCell id="-L7iNUpzvXrhB3CWB1b3-13" style="edgeStyle=none;html=1;exitX=0.5;exitY=1;exitDx=0;exitDy=0;entryX=0.5;entryY=0;entryDx=0;entryDy=0;" parent="-L7iNUpzvXrhB3CWB1b3-9" source="-L7iNUpzvXrhB3CWB1b3-14" target="-L7iNUpzvXrhB3CWB1b3-15" edge="1">
                    <mxGeometry relative="1" as="geometry"/>
                </mxCell>
                <mxCell id="-L7iNUpzvXrhB3CWB1b3-14" value="Collect B3 close historical data" style="rounded=0;whiteSpace=wrap;html=1;" parent="-L7iNUpzvXrhB3CWB1b3-9" vertex="1">
                    <mxGeometry x="125" y="305" width="120" height="60" as="geometry"/>
                </mxCell>
                <mxCell id="-L7iNUpzvXrhB3CWB1b3-15" value="Collect split values" style="whiteSpace=wrap;html=1;rounded=0;" parent="-L7iNUpzvXrhB3CWB1b3-9" vertex="1">
                    <mxGeometry x="125" y="455" width="120" height="60" as="geometry"/>
                </mxCell>
                <mxCell id="-L7iNUpzvXrhB3CWB1b3-16" value="Collect Ibovespa historical close values" style="whiteSpace=wrap;html=1;rounded=0;" parent="-L7iNUpzvXrhB3CWB1b3-9" vertex="1">
                    <mxGeometry x="267" y="305" width="120" height="60" as="geometry"/>
                </mxCell>
                <mxCell id="-L7iNUpzvXrhB3CWB1b3-17" value="Collect Selic historical interest rates" style="whiteSpace=wrap;html=1;rounded=0;" parent="-L7iNUpzvXrhB3CWB1b3-9" vertex="1">
                    <mxGeometry x="410" y="305" width="120" height="60" as="geometry"/>
                </mxCell>
                <mxCell id="-L7iNUpzvXrhB3CWB1b3-18" value="" style="edgeStyle=elbowEdgeStyle;elbow=vertical;endArrow=classic;html=1;exitX=0.5;exitY=1;exitDx=0;exitDy=0;entryX=0.5;entryY=0;entryDx=0;entryDy=0;" parent="-L7iNUpzvXrhB3CWB1b3-9" source="-L7iNUpzvXrhB3CWB1b3-12" target="-L7iNUpzvXrhB3CWB1b3-14" edge="1">
                    <mxGeometry width="50" height="50" relative="1" as="geometry">
                        <mxPoint x="272" y="415" as="sourcePoint"/>
                        <mxPoint x="322" y="365" as="targetPoint"/>
                    </mxGeometry>
                </mxCell>
                <mxCell id="-L7iNUpzvXrhB3CWB1b3-19" value="" style="edgeStyle=elbowEdgeStyle;elbow=vertical;endArrow=classic;html=1;exitX=0.5;exitY=1;exitDx=0;exitDy=0;entryX=0.5;entryY=0;entryDx=0;entryDy=0;" parent="-L7iNUpzvXrhB3CWB1b3-9" source="-L7iNUpzvXrhB3CWB1b3-12" target="-L7iNUpzvXrhB3CWB1b3-17" edge="1">
                    <mxGeometry width="50" height="50" relative="1" as="geometry">
                        <mxPoint x="337" y="260" as="sourcePoint"/>
                        <mxPoint x="195" y="315" as="targetPoint"/>
                    </mxGeometry>
                </mxCell>
                <mxCell id="-L7iNUpzvXrhB3CWB1b3-20" value="" style="edgeStyle=elbowEdgeStyle;elbow=vertical;endArrow=classic;html=1;exitX=0.5;exitY=1;exitDx=0;exitDy=0;entryX=0.5;entryY=0;entryDx=0;entryDy=0;" parent="-L7iNUpzvXrhB3CWB1b3-9" source="-L7iNUpzvXrhB3CWB1b3-12" target="-L7iNUpzvXrhB3CWB1b3-16" edge="1">
                    <mxGeometry width="50" height="50" relative="1" as="geometry">
                        <mxPoint x="347" y="270" as="sourcePoint"/>
                        <mxPoint x="205" y="325" as="targetPoint"/>
                    </mxGeometry>
                </mxCell>
                <mxCell id="-L7iNUpzvXrhB3CWB1b3-21" value="" style="edgeStyle=none;html=1;" parent="-L7iNUpzvXrhB3CWB1b3-9" source="-L7iNUpzvXrhB3CWB1b3-22" target="-L7iNUpzvXrhB3CWB1b3-23" edge="1">
                    <mxGeometry relative="1" as="geometry"/>
                </mxCell>
                <mxCell id="-L7iNUpzvXrhB3CWB1b3-22" value="Adjust Split Close Values" style="rounded=0;whiteSpace=wrap;html=1;" parent="-L7iNUpzvXrhB3CWB1b3-9" vertex="1">
                    <mxGeometry x="125" y="615" width="120" height="60" as="geometry"/>
                </mxCell>
                <mxCell id="-L7iNUpzvXrhB3CWB1b3-23" value="Linear Interpolate NaN" style="whiteSpace=wrap;html=1;rounded=0;" parent="-L7iNUpzvXrhB3CWB1b3-9" vertex="1">
                    <mxGeometry x="126" y="755" width="120" height="60" as="geometry"/>
                </mxCell>
                <mxCell id="-L7iNUpzvXrhB3CWB1b3-24" value="Convert Risk Free to daily rate" style="whiteSpace=wrap;html=1;rounded=0;" parent="-L7iNUpzvXrhB3CWB1b3-9" vertex="1">
                    <mxGeometry x="409" y="615" width="120" height="60" as="geometry"/>
                </mxCell>
                <mxCell id="-L7iNUpzvXrhB3CWB1b3-25" value="Concatenate Close Values, IBOV and Selic" style="whiteSpace=wrap;html=1;rounded=0;" parent="-L7iNUpzvXrhB3CWB1b3-9" vertex="1">
                    <mxGeometry x="267" y="935" width="120" height="60" as="geometry"/>
                </mxCell>
                <mxCell id="-L7iNUpzvXrhB3CWB1b3-26" value="" style="edgeStyle=elbowEdgeStyle;elbow=vertical;endArrow=classic;html=1;entryX=0.5;entryY=0;entryDx=0;entryDy=0;exitX=0.5;exitY=1;exitDx=0;exitDy=0;" parent="-L7iNUpzvXrhB3CWB1b3-9" source="-L7iNUpzvXrhB3CWB1b3-23" target="-L7iNUpzvXrhB3CWB1b3-25" edge="1">
                    <mxGeometry width="50" height="50" relative="1" as="geometry">
                        <mxPoint x="-28" y="765" as="sourcePoint"/>
                        <mxPoint x="22" y="715" as="targetPoint"/>
                        <Array as="points">
                            <mxPoint x="262" y="875"/>
                        </Array>
                    </mxGeometry>
                </mxCell>
                <mxCell id="-L7iNUpzvXrhB3CWB1b3-27" value="" style="edgeStyle=elbowEdgeStyle;elbow=vertical;endArrow=classic;html=1;entryX=0.5;entryY=0;entryDx=0;entryDy=0;exitX=0.5;exitY=1;exitDx=0;exitDy=0;" parent="-L7iNUpzvXrhB3CWB1b3-9" source="-L7iNUpzvXrhB3CWB1b3-24" target="-L7iNUpzvXrhB3CWB1b3-25" edge="1">
                    <mxGeometry width="50" height="50" relative="1" as="geometry">
                        <mxPoint x="162" y="785" as="sourcePoint"/>
                        <mxPoint x="212" y="735" as="targetPoint"/>
                        <Array as="points">
                            <mxPoint x="382" y="875"/>
                        </Array>
                    </mxGeometry>
                </mxCell>
                <mxCell id="-L7iNUpzvXrhB3CWB1b3-28" value="" style="edgeStyle=elbowEdgeStyle;elbow=horizontal;endArrow=classic;html=1;exitX=0;exitY=0.5;exitDx=0;exitDy=0;entryX=0;entryY=0.5;entryDx=0;entryDy=0;" parent="-L7iNUpzvXrhB3CWB1b3-9" edge="1">
                    <mxGeometry width="50" height="50" relative="1" as="geometry">
                        <mxPoint x="126" y="335" as="sourcePoint"/>
                        <mxPoint x="127" y="645" as="targetPoint"/>
                        <Array as="points">
                            <mxPoint x="80" y="490"/>
                        </Array>
                    </mxGeometry>
                </mxCell>
                <mxCell id="-L7iNUpzvXrhB3CWB1b3-29" value="" style="edgeStyle=elbowEdgeStyle;elbow=vertical;endArrow=classic;html=1;entryX=0.5;entryY=0;entryDx=0;entryDy=0;" parent="-L7iNUpzvXrhB3CWB1b3-9" source="-L7iNUpzvXrhB3CWB1b3-15" target="-L7iNUpzvXrhB3CWB1b3-22" edge="1">
                    <mxGeometry width="50" height="50" relative="1" as="geometry">
                        <mxPoint x="185" y="565" as="sourcePoint"/>
                        <mxPoint x="185" y="585.7106781186548" as="targetPoint"/>
                    </mxGeometry>
                </mxCell>
                <mxCell id="-L7iNUpzvXrhB3CWB1b3-30" value="" style="edgeStyle=elbowEdgeStyle;elbow=vertical;endArrow=classic;html=1;entryX=0.5;entryY=0;entryDx=0;entryDy=0;" parent="-L7iNUpzvXrhB3CWB1b3-9" source="-L7iNUpzvXrhB3CWB1b3-17" target="-L7iNUpzvXrhB3CWB1b3-24" edge="1">
                    <mxGeometry width="50" height="50" relative="1" as="geometry">
                        <mxPoint x="470" y="415" as="sourcePoint"/>
                        <mxPoint x="470" y="435.71067811865476" as="targetPoint"/>
                    </mxGeometry>
                </mxCell>
                <mxCell id="-L7iNUpzvXrhB3CWB1b3-31" value="" style="edgeStyle=elbowEdgeStyle;elbow=vertical;endArrow=classic;html=1;entryX=0.5;entryY=0;entryDx=0;entryDy=0;" parent="-L7iNUpzvXrhB3CWB1b3-9" source="-L7iNUpzvXrhB3CWB1b3-16" target="-L7iNUpzvXrhB3CWB1b3-25" edge="1">
                    <mxGeometry width="50" height="50" relative="1" as="geometry">
                        <mxPoint x="327" y="415" as="sourcePoint"/>
                        <mxPoint x="327" y="435.71067811865476" as="targetPoint"/>
                    </mxGeometry>
                </mxCell>
                <mxCell id="-L7iNUpzvXrhB3CWB1b3-34" value="Parameters Definition" style="rounded=1;whiteSpace=wrap;html=1;" parent="-L7iNUpzvXrhB3CWB1b3-9" vertex="1">
                    <mxGeometry x="136" y="1060" width="120" height="60" as="geometry"/>
                </mxCell>
                <mxCell id="xEQ7gRzYQHPA7U9vPbkS-0" style="edgeStyle=none;html=1;exitX=1;exitY=0.5;exitDx=0;exitDy=0;entryX=0;entryY=0.5;entryDx=0;entryDy=0;" parent="-L7iNUpzvXrhB3CWB1b3-9" source="-L7iNUpzvXrhB3CWB1b3-36" target="-L7iNUpzvXrhB3CWB1b3-35" edge="1">
                    <mxGeometry relative="1" as="geometry"/>
                </mxCell>
                <mxCell id="-L7iNUpzvXrhB3CWB1b3-36" value="Interval Range Evaluation" style="whiteSpace=wrap;html=1;rounded=1;" parent="-L7iNUpzvXrhB3CWB1b3-9" vertex="1">
                    <mxGeometry x="267" y="1240" width="120" height="60" as="geometry"/>
                </mxCell>
                <mxCell id="-L7iNUpzvXrhB3CWB1b3-37" value="Assets Percentage per interval" style="whiteSpace=wrap;html=1;rounded=1;" parent="-L7iNUpzvXrhB3CWB1b3-9" vertex="1">
                    <mxGeometry x="267" y="1380" width="120" height="60" as="geometry"/>
                </mxCell>
                <mxCell id="-L7iNUpzvXrhB3CWB1b3-38" value="Sharpe Time Series per interval" style="whiteSpace=wrap;html=1;rounded=1;" parent="-L7iNUpzvXrhB3CWB1b3-9" vertex="1">
                    <mxGeometry x="67" y="1380" width="120" height="60" as="geometry"/>
                </mxCell>
                <mxCell id="-L7iNUpzvXrhB3CWB1b3-39" value="Successfull Results Per interval" style="whiteSpace=wrap;html=1;rounded=1;" parent="-L7iNUpzvXrhB3CWB1b3-9" vertex="1">
                    <mxGeometry x="467" y="1380" width="120" height="60" as="geometry"/>
                </mxCell>
                <mxCell id="-L7iNUpzvXrhB3CWB1b3-41" value="" style="edgeStyle=elbowEdgeStyle;elbow=vertical;endArrow=classic;html=1;entryX=0.5;entryY=0;entryDx=0;entryDy=0;" parent="-L7iNUpzvXrhB3CWB1b3-9" source="-L7iNUpzvXrhB3CWB1b3-25" target="-L7iNUpzvXrhB3CWB1b3-36" edge="1">
                    <mxGeometry width="50" height="50" relative="1" as="geometry">
                        <mxPoint x="327" y="1045" as="sourcePoint"/>
                        <mxPoint x="327" y="1065.7106781186549" as="targetPoint"/>
                    </mxGeometry>
                </mxCell>
                <mxCell id="-L7iNUpzvXrhB3CWB1b3-42" value="" style="edgeStyle=elbowEdgeStyle;elbow=vertical;endArrow=classic;html=1;entryX=0.5;entryY=0;entryDx=0;entryDy=0;" parent="-L7iNUpzvXrhB3CWB1b3-9" source="-L7iNUpzvXrhB3CWB1b3-36" target="-L7iNUpzvXrhB3CWB1b3-38" edge="1">
                    <mxGeometry width="50" height="50" relative="1" as="geometry">
                        <mxPoint x="327" y="1350" as="sourcePoint"/>
                        <mxPoint x="327" y="1370.7106781186549" as="targetPoint"/>
                    </mxGeometry>
                </mxCell>
                <mxCell id="-L7iNUpzvXrhB3CWB1b3-43" value="" style="edgeStyle=elbowEdgeStyle;elbow=vertical;endArrow=classic;html=1;entryX=0.5;entryY=0;entryDx=0;entryDy=0;" parent="-L7iNUpzvXrhB3CWB1b3-9" source="-L7iNUpzvXrhB3CWB1b3-36" target="-L7iNUpzvXrhB3CWB1b3-39" edge="1">
                    <mxGeometry width="50" height="50" relative="1" as="geometry">
                        <mxPoint x="327" y="1350" as="sourcePoint"/>
                        <mxPoint x="327" y="1370.7106781186549" as="targetPoint"/>
                    </mxGeometry>
                </mxCell>
                <mxCell id="-L7iNUpzvXrhB3CWB1b3-44" value="" style="edgeStyle=elbowEdgeStyle;elbow=vertical;endArrow=classic;html=1;entryX=0.5;entryY=0;entryDx=0;entryDy=0;" parent="-L7iNUpzvXrhB3CWB1b3-9" source="-L7iNUpzvXrhB3CWB1b3-36" target="-L7iNUpzvXrhB3CWB1b3-37" edge="1">
                    <mxGeometry width="50" height="50" relative="1" as="geometry">
                        <mxPoint x="327" y="1350" as="sourcePoint"/>
                        <mxPoint x="327" y="1370.7106781186549" as="targetPoint"/>
                    </mxGeometry>
                </mxCell>
                <mxCell id="-L7iNUpzvXrhB3CWB1b3-45" value="Portfolio Evaluation" style="rounded=0;whiteSpace=wrap;html=1;" parent="-L7iNUpzvXrhB3CWB1b3-9" vertex="1">
                    <mxGeometry x="267" y="1540" width="120" height="60" as="geometry"/>
                </mxCell>
                <mxCell id="-L7iNUpzvXrhB3CWB1b3-46" value="Investment Result by Range compared to Ibovespa" style="rounded=1;whiteSpace=wrap;html=1;" parent="-L7iNUpzvXrhB3CWB1b3-9" vertex="1">
                    <mxGeometry x="204" y="1680" width="120" height="60" as="geometry"/>
                </mxCell>
                <mxCell id="-L7iNUpzvXrhB3CWB1b3-47" value="" style="edgeStyle=elbowEdgeStyle;elbow=vertical;endArrow=classic;html=1;entryX=0.5;entryY=0;entryDx=0;entryDy=0;" parent="-L7iNUpzvXrhB3CWB1b3-9" source="-L7iNUpzvXrhB3CWB1b3-37" target="-L7iNUpzvXrhB3CWB1b3-45" edge="1">
                    <mxGeometry width="50" height="50" relative="1" as="geometry">
                        <mxPoint x="327" y="1490" as="sourcePoint"/>
                        <mxPoint x="327" y="1510.7106781186549" as="targetPoint"/>
                    </mxGeometry>
                </mxCell>
                <mxCell id="-L7iNUpzvXrhB3CWB1b3-48" value="Sharpe Time Series plot per Interval" style="rounded=0;whiteSpace=wrap;html=1;" parent="-L7iNUpzvXrhB3CWB1b3-9" vertex="1">
                    <mxGeometry x="67" y="1880" width="120" height="60" as="geometry"/>
                </mxCell>
                <mxCell id="-L7iNUpzvXrhB3CWB1b3-49" value="Investment Result plot per Interval" style="rounded=0;whiteSpace=wrap;html=1;" parent="-L7iNUpzvXrhB3CWB1b3-9" vertex="1">
                    <mxGeometry x="204" y="1880" width="120" height="60" as="geometry"/>
                </mxCell>
                <mxCell id="-L7iNUpzvXrhB3CWB1b3-50" value="Successfull Optmizations per Intervals bar plot" style="rounded=0;whiteSpace=wrap;html=1;" parent="-L7iNUpzvXrhB3CWB1b3-9" vertex="1">
                    <mxGeometry x="467" y="1880" width="120" height="60" as="geometry"/>
                </mxCell>
                <mxCell id="-L7iNUpzvXrhB3CWB1b3-52" value="" style="edgeStyle=elbowEdgeStyle;elbow=vertical;endArrow=classic;html=1;entryX=0.5;entryY=0;entryDx=0;entryDy=0;" parent="-L7iNUpzvXrhB3CWB1b3-9" source="-L7iNUpzvXrhB3CWB1b3-46" target="-L7iNUpzvXrhB3CWB1b3-49" edge="1">
                    <mxGeometry width="50" height="50" relative="1" as="geometry">
                        <mxPoint x="264" y="1790" as="sourcePoint"/>
                        <mxPoint x="264" y="1810.7106781186549" as="targetPoint"/>
                    </mxGeometry>
                </mxCell>
                <mxCell id="-L7iNUpzvXrhB3CWB1b3-53" value="" style="edgeStyle=elbowEdgeStyle;elbow=vertical;endArrow=classic;html=1;entryX=0.5;entryY=0;entryDx=0;entryDy=0;" parent="-L7iNUpzvXrhB3CWB1b3-9" source="-L7iNUpzvXrhB3CWB1b3-38" target="-L7iNUpzvXrhB3CWB1b3-48" edge="1">
                    <mxGeometry width="50" height="50" relative="1" as="geometry">
                        <mxPoint x="127" y="1490" as="sourcePoint"/>
                        <mxPoint x="127" y="1510.7106781186549" as="targetPoint"/>
                    </mxGeometry>
                </mxCell>
                <mxCell id="-L7iNUpzvXrhB3CWB1b3-54" value="" style="edgeStyle=elbowEdgeStyle;elbow=vertical;endArrow=classic;html=1;entryX=0.5;entryY=0;entryDx=0;entryDy=0;" parent="-L7iNUpzvXrhB3CWB1b3-9" source="-L7iNUpzvXrhB3CWB1b3-39" target="-L7iNUpzvXrhB3CWB1b3-50" edge="1">
                    <mxGeometry width="50" height="50" relative="1" as="geometry">
                        <mxPoint x="527" y="1490" as="sourcePoint"/>
                        <mxPoint x="567" y="1800" as="targetPoint"/>
                    </mxGeometry>
                </mxCell>
                <mxCell id="-L7iNUpzvXrhB3CWB1b3-55" value="" style="edgeStyle=none;html=1;" parent="-L7iNUpzvXrhB3CWB1b3-9" source="-L7iNUpzvXrhB3CWB1b3-56" target="-L7iNUpzvXrhB3CWB1b3-57" edge="1">
                    <mxGeometry relative="1" as="geometry"/>
                </mxCell>
                <mxCell id="-L7iNUpzvXrhB3CWB1b3-56" value="Investment Percentage Change" style="whiteSpace=wrap;html=1;rounded=1;" parent="-L7iNUpzvXrhB3CWB1b3-9" vertex="1">
                    <mxGeometry x="335" y="1680" width="120" height="60" as="geometry"/>
                </mxCell>
                <mxCell id="-L7iNUpzvXrhB3CWB1b3-57" value="Investment Percentage Change Box plot per interval" style="rounded=0;whiteSpace=wrap;html=1;" parent="-L7iNUpzvXrhB3CWB1b3-9" vertex="1">
                    <mxGeometry x="335" y="1880" width="120" height="60" as="geometry"/>
                </mxCell>
                <mxCell id="-L7iNUpzvXrhB3CWB1b3-58" value="" style="edgeStyle=elbowEdgeStyle;elbow=vertical;endArrow=classic;html=1;entryX=0.5;entryY=0;entryDx=0;entryDy=0;" parent="-L7iNUpzvXrhB3CWB1b3-9" source="-L7iNUpzvXrhB3CWB1b3-45" target="-L7iNUpzvXrhB3CWB1b3-46" edge="1">
                    <mxGeometry width="50" height="50" relative="1" as="geometry">
                        <mxPoint x="327" y="1650" as="sourcePoint"/>
                        <mxPoint x="327" y="1670.7106781186549" as="targetPoint"/>
                    </mxGeometry>
                </mxCell>
                <mxCell id="-L7iNUpzvXrhB3CWB1b3-59" value="" style="edgeStyle=elbowEdgeStyle;elbow=vertical;endArrow=classic;html=1;entryX=0.5;entryY=0;entryDx=0;entryDy=0;" parent="-L7iNUpzvXrhB3CWB1b3-9" source="-L7iNUpzvXrhB3CWB1b3-45" target="-L7iNUpzvXrhB3CWB1b3-56" edge="1">
                    <mxGeometry width="50" height="50" relative="1" as="geometry">
                        <mxPoint x="327" y="1650" as="sourcePoint"/>
                        <mxPoint x="327" y="1670.7106781186549" as="targetPoint"/>
                    </mxGeometry>
                </mxCell>
                <mxCell id="Ma61H0bVZKCn_GGmqCww-4" value="Sharpe Forecast Evaluation" style="swimlane;childLayout=stackLayout;resizeParent=1;resizeParentMax=0;horizontal=0;startSize=20;horizontalStack=0;" parent="-L7iNUpzvXrhB3CWB1b3-9" vertex="1">
                    <mxGeometry x="12" y="20" width="830" height="2020" as="geometry"/>
                </mxCell>
                <mxCell id="Ma61H0bVZKCn_GGmqCww-5" value="Initialize" style="swimlane;startSize=20;horizontal=0;" parent="Ma61H0bVZKCn_GGmqCww-4" vertex="1">
                    <mxGeometry x="20" width="810" height="240" as="geometry"/>
                </mxCell>
                <mxCell id="Ma61H0bVZKCn_GGmqCww-6" value="Data Collecting" style="swimlane;startSize=20;horizontal=0;" parent="Ma61H0bVZKCn_GGmqCww-4" vertex="1">
                    <mxGeometry x="20" y="240" width="810" height="300" as="geometry"/>
                </mxCell>
                <mxCell id="Ma61H0bVZKCn_GGmqCww-7" value="Data Wrangling" style="swimlane;startSize=20;horizontal=0;" parent="Ma61H0bVZKCn_GGmqCww-4" vertex="1">
                    <mxGeometry x="20" y="540" width="810" height="470" as="geometry"/>
                </mxCell>
                <mxCell id="HSLh598OqM0qbri4obqt-0" value="Optmizer Modeling" style="swimlane;startSize=20;horizontal=0;" parent="Ma61H0bVZKCn_GGmqCww-4" vertex="1">
                    <mxGeometry x="20" y="1010" width="810" height="470" as="geometry"/>
                </mxCell>
                <mxCell id="xEQ7gRzYQHPA7U9vPbkS-1" style="edgeStyle=none;html=1;exitX=1;exitY=0.5;exitDx=0;exitDy=0;entryX=0;entryY=0.5;entryDx=0;entryDy=0;" parent="HSLh598OqM0qbri4obqt-0" source="-L7iNUpzvXrhB3CWB1b3-35" target="-L7iNUpzvXrhB3CWB1b3-32" edge="1">
                    <mxGeometry relative="1" as="geometry"/>
                </mxCell>
                <mxCell id="-L7iNUpzvXrhB3CWB1b3-35" value="Rolling Dinamic Portfolio" style="whiteSpace=wrap;html=1;rounded=0;" parent="HSLh598OqM0qbri4obqt-0" vertex="1">
                    <mxGeometry x="386" y="210" width="120" height="60" as="geometry"/>
                </mxCell>
                <mxCell id="xEQ7gRzYQHPA7U9vPbkS-2" style="edgeStyle=none;html=1;exitX=1;exitY=0.5;exitDx=0;exitDy=0;entryX=0;entryY=0.5;entryDx=0;entryDy=0;" parent="HSLh598OqM0qbri4obqt-0" source="-L7iNUpzvXrhB3CWB1b3-32" target="-L7iNUpzvXrhB3CWB1b3-33" edge="1">
                    <mxGeometry relative="1" as="geometry"/>
                </mxCell>
                <mxCell id="-L7iNUpzvXrhB3CWB1b3-32" value="Assets Calculations" style="whiteSpace=wrap;html=1;rounded=0;" parent="HSLh598OqM0qbri4obqt-0" vertex="1">
                    <mxGeometry x="529" y="210" width="120" height="60" as="geometry"/>
                </mxCell>
                <mxCell id="-L7iNUpzvXrhB3CWB1b3-33" value="Sharpe Optimization" style="whiteSpace=wrap;html=1;rounded=0;" parent="HSLh598OqM0qbri4obqt-0" vertex="1">
                    <mxGeometry x="669" y="210" width="120" height="60" as="geometry"/>
                </mxCell>
                <mxCell id="xEQ7gRzYQHPA7U9vPbkS-6" value="" style="edgeStyle=elbowEdgeStyle;elbow=vertical;endArrow=classic;html=1;entryX=0.75;entryY=0;entryDx=0;entryDy=0;exitX=0.5;exitY=0;exitDx=0;exitDy=0;" parent="HSLh598OqM0qbri4obqt-0" source="-L7iNUpzvXrhB3CWB1b3-33" target="-L7iNUpzvXrhB3CWB1b3-35" edge="1">
                    <mxGeometry width="50" height="50" relative="1" as="geometry">
                        <mxPoint x="689" y="-840.7106781186548" as="sourcePoint"/>
                        <mxPoint x="639" y="400" as="targetPoint"/>
                        <Array as="points">
                            <mxPoint x="599" y="190"/>
                        </Array>
                    </mxGeometry>
                </mxCell>
                <mxCell id="xEQ7gRzYQHPA7U9vPbkS-10" value="Each Rolling Perdiod" style="edgeLabel;html=1;align=center;verticalAlign=middle;resizable=0;points=[];" parent="xEQ7gRzYQHPA7U9vPbkS-6" vertex="1" connectable="0">
                    <mxGeometry x="0.0698" y="1" relative="1" as="geometry">
                        <mxPoint as="offset"/>
                    </mxGeometry>
                </mxCell>
                <mxCell id="MbBYB0St3QZtFJ936VBY-0" value="Interval Range Evaluation" style="whiteSpace=wrap;html=1;rounded=0;" parent="HSLh598OqM0qbri4obqt-0" vertex="1">
                    <mxGeometry x="235" y="210" width="120" height="60" as="geometry"/>
                </mxCell>
                <mxCell id="HSLh598OqM0qbri4obqt-2" value="Data Result Analyses" style="swimlane;startSize=20;horizontal=0;" parent="Ma61H0bVZKCn_GGmqCww-4" vertex="1">
                    <mxGeometry x="20" y="1480" width="810" height="270" as="geometry"/>
                </mxCell>
                <mxCell id="xEQ7gRzYQHPA7U9vPbkS-11" value="" style="edgeStyle=elbowEdgeStyle;elbow=vertical;endArrow=classic;html=1;" parent="Ma61H0bVZKCn_GGmqCww-4" source="-L7iNUpzvXrhB3CWB1b3-33" target="-L7iNUpzvXrhB3CWB1b3-51" edge="1">
                    <mxGeometry width="50" height="50" relative="1" as="geometry">
                        <mxPoint x="709" y="300" as="sourcePoint"/>
                        <mxPoint x="789" y="2380.710678118655" as="targetPoint"/>
                    </mxGeometry>
                </mxCell>
                <mxCell id="lCjDYktGo65LW1KuoAiu-0" value="Data Result Visualization" style="swimlane;startSize=20;horizontal=0;" parent="Ma61H0bVZKCn_GGmqCww-4" vertex="1">
                    <mxGeometry x="20" y="1750" width="810" height="270" as="geometry"/>
                </mxCell>
                <mxCell id="-L7iNUpzvXrhB3CWB1b3-51" value="Sharpe Optimization Graph" style="rounded=0;whiteSpace=wrap;html=1;" parent="lCjDYktGo65LW1KuoAiu-0" vertex="1">
                    <mxGeometry x="668" y="110" width="120" height="60" as="geometry"/>
                </mxCell>
                <mxCell id="xEQ7gRzYQHPA7U9vPbkS-8" value="Each Interval" style="edgeStyle=elbowEdgeStyle;elbow=vertical;endArrow=classic;html=1;entryX=0.75;entryY=0;entryDx=0;entryDy=0;exitX=0.5;exitY=0;exitDx=0;exitDy=0;" parent="-L7iNUpzvXrhB3CWB1b3-9" source="-L7iNUpzvXrhB3CWB1b3-35" target="-L7iNUpzvXrhB3CWB1b3-36" edge="1">
                    <mxGeometry width="50" height="50" relative="1" as="geometry">
                        <mxPoint x="438" y="189.28932188134524" as="sourcePoint"/>
                        <mxPoint x="441" y="1180" as="targetPoint"/>
                        <Array as="points">
                            <mxPoint x="411" y="1220"/>
                        </Array>
                    </mxGeometry>
                </mxCell>
                <mxCell id="rG7N_TGhbtQNoifJhL4u-0" value="" style="edgeStyle=segmentEdgeStyle;endArrow=classic;html=1;entryX=0;entryY=0.5;entryDx=0;entryDy=0;exitX=0.5;exitY=1;exitDx=0;exitDy=0;" parent="-L7iNUpzvXrhB3CWB1b3-9" source="-L7iNUpzvXrhB3CWB1b3-34" target="-L7iNUpzvXrhB3CWB1b3-36" edge="1">
                    <mxGeometry width="50" height="50" relative="1" as="geometry">
                        <mxPoint x="160" y="1230" as="sourcePoint"/>
                        <mxPoint x="210" y="1180" as="targetPoint"/>
                        <Array as="points">
                            <mxPoint x="196" y="1270"/>
                        </Array>
                    </mxGeometry>
                </mxCell>
            </root>
        </mxGraphModel>
    </diagram>
    <diagram id="F665EU9rxfXpyMrmVQbY" name="Interval Evaluation">
        <mxGraphModel dx="1129" dy="456" grid="1" gridSize="10" guides="1" tooltips="1" connect="1" arrows="1" fold="1" page="1" pageScale="1" pageWidth="850" pageHeight="1100" math="0" shadow="0">
            <root>
                <mxCell id="kp81S7wIO9y_qMFkGog8-0"/>
                <mxCell id="kp81S7wIO9y_qMFkGog8-1" parent="kp81S7wIO9y_qMFkGog8-0"/>
                <mxCell id="FCu-Dm-viKtJ4dNc0x9R-0" value="Content" parent="kp81S7wIO9y_qMFkGog8-0"/>
                <mxCell id="EMn69V2zd68TeTtqE_gL-7" value="Interval Evaluation" style="swimlane;" parent="FCu-Dm-viKtJ4dNc0x9R-0" vertex="1">
                    <mxGeometry x="80" y="50" width="640" height="850" as="geometry"/>
                </mxCell>
                <mxCell id="FCu-Dm-viKtJ4dNc0x9R-2" value="Assets Values" style="rounded=1;whiteSpace=wrap;html=1;" parent="EMn69V2zd68TeTtqE_gL-7" vertex="1">
                    <mxGeometry x="350" y="40" width="123" height="60" as="geometry"/>
                </mxCell>
                <mxCell id="FCu-Dm-viKtJ4dNc0x9R-3" value="Interval Range (periods)" style="rounded=1;whiteSpace=wrap;html=1;" parent="EMn69V2zd68TeTtqE_gL-7" vertex="1">
                    <mxGeometry x="180" y="40" width="123" height="60" as="geometry"/>
                </mxCell>
                <mxCell id="FCu-Dm-viKtJ4dNc0x9R-5" value="Rolling Dinamic Portfolio" style="whiteSpace=wrap;html=1;rounded=0;" parent="EMn69V2zd68TeTtqE_gL-7" vertex="1">
                    <mxGeometry x="350" y="180" width="123" height="60" as="geometry"/>
                </mxCell>
                <mxCell id="FCu-Dm-viKtJ4dNc0x9R-1" value="" style="edgeStyle=none;html=1;" parent="EMn69V2zd68TeTtqE_gL-7" source="FCu-Dm-viKtJ4dNc0x9R-2" target="FCu-Dm-viKtJ4dNc0x9R-5" edge="1">
                    <mxGeometry relative="1" as="geometry"/>
                </mxCell>
                <mxCell id="FCu-Dm-viKtJ4dNc0x9R-7" value="Count Successfull Results" style="whiteSpace=wrap;html=1;rounded=1;" parent="EMn69V2zd68TeTtqE_gL-7" vertex="1">
                    <mxGeometry x="490" y="326" width="123" height="60" as="geometry"/>
                </mxCell>
                <mxCell id="FCu-Dm-viKtJ4dNc0x9R-9" value="Assets Weights on Time Series" style="whiteSpace=wrap;html=1;rounded=1;" parent="EMn69V2zd68TeTtqE_gL-7" vertex="1">
                    <mxGeometry x="350" y="326" width="123" height="60" as="geometry"/>
                </mxCell>
                <mxCell id="FCu-Dm-viKtJ4dNc0x9R-4" style="edgeStyle=none;html=1;exitX=0.5;exitY=1;exitDx=0;exitDy=0;" parent="EMn69V2zd68TeTtqE_gL-7" source="FCu-Dm-viKtJ4dNc0x9R-5" target="FCu-Dm-viKtJ4dNc0x9R-9" edge="1">
                    <mxGeometry relative="1" as="geometry"/>
                </mxCell>
                <mxCell id="FCu-Dm-viKtJ4dNc0x9R-11" value="Sharpe Value on Time Series" style="whiteSpace=wrap;html=1;rounded=1;" parent="EMn69V2zd68TeTtqE_gL-7" vertex="1">
                    <mxGeometry x="210" y="326" width="123" height="60" as="geometry"/>
                </mxCell>
                <mxCell id="FCu-Dm-viKtJ4dNc0x9R-12" value="" style="edgeStyle=elbowEdgeStyle;elbow=vertical;endArrow=classic;html=1;" parent="EMn69V2zd68TeTtqE_gL-7" source="FCu-Dm-viKtJ4dNc0x9R-5" target="FCu-Dm-viKtJ4dNc0x9R-11" edge="1">
                    <mxGeometry width="50" height="50" relative="1" as="geometry">
                        <mxPoint x="410" y="290" as="sourcePoint"/>
                        <mxPoint x="410" y="310.71067811865476" as="targetPoint"/>
                    </mxGeometry>
                </mxCell>
                <mxCell id="FCu-Dm-viKtJ4dNc0x9R-13" value="" style="edgeStyle=elbowEdgeStyle;elbow=vertical;endArrow=classic;html=1;entryX=0.5;entryY=0;entryDx=0;entryDy=0;" parent="EMn69V2zd68TeTtqE_gL-7" source="FCu-Dm-viKtJ4dNc0x9R-5" target="FCu-Dm-viKtJ4dNc0x9R-7" edge="1">
                    <mxGeometry width="50" height="50" relative="1" as="geometry">
                        <mxPoint x="410" y="290" as="sourcePoint"/>
                        <mxPoint x="410" y="310.71067811865476" as="targetPoint"/>
                    </mxGeometry>
                </mxCell>
                <mxCell id="FCu-Dm-viKtJ4dNc0x9R-14" value="Add on Sharpe Value TS per Interval Range table" style="whiteSpace=wrap;html=1;rounded=0;" parent="EMn69V2zd68TeTtqE_gL-7" vertex="1">
                    <mxGeometry x="210" y="466" width="123" height="60" as="geometry"/>
                </mxCell>
                <mxCell id="FCu-Dm-viKtJ4dNc0x9R-10" value="" style="edgeStyle=none;html=1;" parent="EMn69V2zd68TeTtqE_gL-7" source="FCu-Dm-viKtJ4dNc0x9R-11" target="FCu-Dm-viKtJ4dNc0x9R-14" edge="1">
                    <mxGeometry relative="1" as="geometry"/>
                </mxCell>
                <mxCell id="FCu-Dm-viKtJ4dNc0x9R-15" value="Add on Assets Weights on TS per Interval Range table" style="whiteSpace=wrap;html=1;rounded=0;" parent="EMn69V2zd68TeTtqE_gL-7" vertex="1">
                    <mxGeometry x="350" y="466" width="123" height="60" as="geometry"/>
                </mxCell>
                <mxCell id="FCu-Dm-viKtJ4dNc0x9R-16" value="Add on Successfull Results per Interval Range table" style="whiteSpace=wrap;html=1;rounded=0;" parent="EMn69V2zd68TeTtqE_gL-7" vertex="1">
                    <mxGeometry x="490" y="466" width="123" height="60" as="geometry"/>
                </mxCell>
                <mxCell id="FCu-Dm-viKtJ4dNc0x9R-8" value="" style="edgeStyle=none;html=1;" parent="EMn69V2zd68TeTtqE_gL-7" source="FCu-Dm-viKtJ4dNc0x9R-9" target="FCu-Dm-viKtJ4dNc0x9R-15" edge="1">
                    <mxGeometry relative="1" as="geometry"/>
                </mxCell>
                <mxCell id="FCu-Dm-viKtJ4dNc0x9R-17" value="" style="edgeStyle=segmentEdgeStyle;endArrow=classic;html=1;entryX=0;entryY=0.5;entryDx=0;entryDy=0;" parent="EMn69V2zd68TeTtqE_gL-7" source="FCu-Dm-viKtJ4dNc0x9R-3" target="FCu-Dm-viKtJ4dNc0x9R-5" edge="1">
                    <mxGeometry width="50" height="50" relative="1" as="geometry">
                        <mxPoint x="240" y="150" as="sourcePoint"/>
                        <mxPoint x="240" y="170.71067811865476" as="targetPoint"/>
                        <Array as="points">
                            <mxPoint x="240" y="210"/>
                        </Array>
                    </mxGeometry>
                </mxCell>
                <mxCell id="FCu-Dm-viKtJ4dNc0x9R-20" value="" style="ellipse;whiteSpace=wrap;html=1;aspect=fixed;" parent="EMn69V2zd68TeTtqE_gL-7" vertex="1">
                    <mxGeometry x="380" y="606" width="63" height="60" as="geometry"/>
                </mxCell>
                <mxCell id="FCu-Dm-viKtJ4dNc0x9R-6" value="" style="edgeStyle=none;html=1;" parent="EMn69V2zd68TeTtqE_gL-7" source="FCu-Dm-viKtJ4dNc0x9R-7" target="FCu-Dm-viKtJ4dNc0x9R-16" edge="1">
                    <mxGeometry relative="1" as="geometry"/>
                </mxCell>
                <mxCell id="FCu-Dm-viKtJ4dNc0x9R-21" value="" style="edgeStyle=none;html=1;" parent="EMn69V2zd68TeTtqE_gL-7" source="FCu-Dm-viKtJ4dNc0x9R-15" target="FCu-Dm-viKtJ4dNc0x9R-20" edge="1">
                    <mxGeometry relative="1" as="geometry"/>
                </mxCell>
                <mxCell id="FCu-Dm-viKtJ4dNc0x9R-22" value="Next Interval Range" style="whiteSpace=wrap;html=1;rounded=0;" parent="EMn69V2zd68TeTtqE_gL-7" vertex="1">
                    <mxGeometry x="20" y="606" width="123" height="60" as="geometry"/>
                </mxCell>
                <mxCell id="FCu-Dm-viKtJ4dNc0x9R-23" value="" style="edgeStyle=segmentEdgeStyle;endArrow=classic;html=1;entryX=0;entryY=0.5;entryDx=0;entryDy=0;exitX=0.5;exitY=0;exitDx=0;exitDy=0;" parent="EMn69V2zd68TeTtqE_gL-7" source="FCu-Dm-viKtJ4dNc0x9R-22" target="FCu-Dm-viKtJ4dNc0x9R-3" edge="1">
                    <mxGeometry width="50" height="50" relative="1" as="geometry">
                        <mxPoint x="440" y="320" as="sourcePoint"/>
                        <mxPoint x="490" y="270" as="targetPoint"/>
                        <Array as="points">
                            <mxPoint x="80" y="70"/>
                        </Array>
                    </mxGeometry>
                </mxCell>
                <mxCell id="FCu-Dm-viKtJ4dNc0x9R-24" value="" style="edgeStyle=elbowEdgeStyle;elbow=vertical;endArrow=classic;html=1;entryX=0.5;entryY=0;entryDx=0;entryDy=0;exitX=0.5;exitY=1;exitDx=0;exitDy=0;" parent="EMn69V2zd68TeTtqE_gL-7" source="FCu-Dm-viKtJ4dNc0x9R-14" target="FCu-Dm-viKtJ4dNc0x9R-20" edge="1">
                    <mxGeometry width="50" height="50" relative="1" as="geometry">
                        <mxPoint x="440" y="660" as="sourcePoint"/>
                        <mxPoint x="490" y="610" as="targetPoint"/>
                    </mxGeometry>
                </mxCell>
                <mxCell id="FCu-Dm-viKtJ4dNc0x9R-18" value="" style="edgeStyle=none;html=1;" parent="EMn69V2zd68TeTtqE_gL-7" source="FCu-Dm-viKtJ4dNc0x9R-20" target="FCu-Dm-viKtJ4dNc0x9R-22" edge="1">
                    <mxGeometry relative="1" as="geometry"/>
                </mxCell>
                <mxCell id="FCu-Dm-viKtJ4dNc0x9R-25" value="" style="edgeStyle=elbowEdgeStyle;elbow=vertical;endArrow=classic;html=1;exitX=0.5;exitY=1;exitDx=0;exitDy=0;entryX=0.5;entryY=0;entryDx=0;entryDy=0;" parent="EMn69V2zd68TeTtqE_gL-7" source="FCu-Dm-viKtJ4dNc0x9R-16" target="FCu-Dm-viKtJ4dNc0x9R-20" edge="1">
                    <mxGeometry width="50" height="50" relative="1" as="geometry">
                        <mxPoint x="440" y="660" as="sourcePoint"/>
                        <mxPoint x="490" y="610" as="targetPoint"/>
                    </mxGeometry>
                </mxCell>
                <mxCell id="FCu-Dm-viKtJ4dNc0x9R-26" value="Sharpe Value TS per Interval Range" style="whiteSpace=wrap;html=1;rounded=1;" parent="EMn69V2zd68TeTtqE_gL-7" vertex="1">
                    <mxGeometry x="210" y="740" width="123" height="60" as="geometry"/>
                </mxCell>
                <mxCell id="FCu-Dm-viKtJ4dNc0x9R-27" value="Assets Weights on TS per Interval Range" style="whiteSpace=wrap;html=1;rounded=1;" parent="EMn69V2zd68TeTtqE_gL-7" vertex="1">
                    <mxGeometry x="350" y="740" width="123" height="60" as="geometry"/>
                </mxCell>
                <mxCell id="FCu-Dm-viKtJ4dNc0x9R-28" value="Successfull Results per Interval Range" style="whiteSpace=wrap;html=1;rounded=1;" parent="EMn69V2zd68TeTtqE_gL-7" vertex="1">
                    <mxGeometry x="490" y="740" width="123" height="60" as="geometry"/>
                </mxCell>
                <mxCell id="FCu-Dm-viKtJ4dNc0x9R-29" value="" style="edgeStyle=elbowEdgeStyle;elbow=vertical;endArrow=classic;html=1;exitX=0.5;exitY=1;exitDx=0;exitDy=0;" parent="EMn69V2zd68TeTtqE_gL-7" source="FCu-Dm-viKtJ4dNc0x9R-20" target="FCu-Dm-viKtJ4dNc0x9R-28" edge="1">
                    <mxGeometry width="50" height="50" relative="1" as="geometry">
                        <mxPoint x="440" y="680" as="sourcePoint"/>
                        <mxPoint x="490" y="630" as="targetPoint"/>
                    </mxGeometry>
                </mxCell>
                <mxCell id="FCu-Dm-viKtJ4dNc0x9R-30" value="" style="edgeStyle=elbowEdgeStyle;elbow=vertical;endArrow=classic;html=1;exitX=0.5;exitY=1;exitDx=0;exitDy=0;entryX=0.5;entryY=0;entryDx=0;entryDy=0;" parent="EMn69V2zd68TeTtqE_gL-7" source="FCu-Dm-viKtJ4dNc0x9R-20" target="FCu-Dm-viKtJ4dNc0x9R-26" edge="1">
                    <mxGeometry width="50" height="50" relative="1" as="geometry">
                        <mxPoint x="440" y="680" as="sourcePoint"/>
                        <mxPoint x="490" y="630" as="targetPoint"/>
                    </mxGeometry>
                </mxCell>
                <mxCell id="FCu-Dm-viKtJ4dNc0x9R-19" style="edgeStyle=none;html=1;exitX=0.5;exitY=1;exitDx=0;exitDy=0;" parent="EMn69V2zd68TeTtqE_gL-7" source="FCu-Dm-viKtJ4dNc0x9R-20" target="FCu-Dm-viKtJ4dNc0x9R-27" edge="1">
                    <mxGeometry relative="1" as="geometry"/>
                </mxCell>
            </root>
        </mxGraphModel>
    </diagram>
    <diagram id="EivyyK_R-81JgNX-nKIw" name="Rolling Dinamic Portfolio">
        <mxGraphModel dx="909" dy="456" grid="1" gridSize="10" guides="1" tooltips="1" connect="1" arrows="1" fold="1" page="1" pageScale="1" pageWidth="850" pageHeight="1100" math="0" shadow="0">
            <root>
                <mxCell id="kQ8YfgNnP0R8OJioQINz-0"/>
                <mxCell id="kQ8YfgNnP0R8OJioQINz-1" parent="kQ8YfgNnP0R8OJioQINz-0"/>
                <mxCell id="mkL6k9nbM1XCg2q4_SrA-0" value="Content" parent="kQ8YfgNnP0R8OJioQINz-0"/>
                <mxCell id="GSYTnMA2Pb7o08oM1_KD-0" value="Rolling Dinamic Portfolio" style="swimlane;" parent="mkL6k9nbM1XCg2q4_SrA-0" vertex="1">
                    <mxGeometry x="180" y="100" width="1360" height="1680" as="geometry"/>
                </mxCell>
                <mxCell id="mkL6k9nbM1XCg2q4_SrA-2" value="Assets Values" style="rounded=1;whiteSpace=wrap;html=1;" parent="GSYTnMA2Pb7o08oM1_KD-0" vertex="1">
                    <mxGeometry x="300" y="170" width="120" height="60" as="geometry"/>
                </mxCell>
                <mxCell id="mkL6k9nbM1XCg2q4_SrA-5" value="Change intervals?" style="rhombus;whiteSpace=wrap;html=1;rounded=1;" parent="GSYTnMA2Pb7o08oM1_KD-0" vertex="1">
                    <mxGeometry x="320" y="300" width="80" height="80" as="geometry"/>
                </mxCell>
                <mxCell id="mkL6k9nbM1XCg2q4_SrA-1" value="" style="edgeStyle=none;html=1;" parent="GSYTnMA2Pb7o08oM1_KD-0" source="mkL6k9nbM1XCg2q4_SrA-2" target="mkL6k9nbM1XCg2q4_SrA-5" edge="1">
                    <mxGeometry relative="1" as="geometry"/>
                </mxCell>
                <mxCell id="mkL6k9nbM1XCg2q4_SrA-6" value="&lt;span&gt;Assets Values modified per period type&lt;/span&gt;" style="whiteSpace=wrap;html=1;rounded=0;" parent="GSYTnMA2Pb7o08oM1_KD-0" vertex="1">
                    <mxGeometry x="460" y="310" width="120" height="60" as="geometry"/>
                </mxCell>
                <mxCell id="mkL6k9nbM1XCg2q4_SrA-3" value="" style="edgeStyle=none;html=1;" parent="GSYTnMA2Pb7o08oM1_KD-0" source="mkL6k9nbM1XCg2q4_SrA-5" target="mkL6k9nbM1XCg2q4_SrA-6" edge="1">
                    <mxGeometry relative="1" as="geometry"/>
                </mxCell>
                <mxCell id="mkL6k9nbM1XCg2q4_SrA-7" value="No change on data" style="whiteSpace=wrap;html=1;rounded=0;" parent="GSYTnMA2Pb7o08oM1_KD-0" vertex="1">
                    <mxGeometry x="300" y="470" width="120" height="60" as="geometry"/>
                </mxCell>
                <mxCell id="mkL6k9nbM1XCg2q4_SrA-4" value="" style="edgeStyle=none;html=1;" parent="GSYTnMA2Pb7o08oM1_KD-0" source="mkL6k9nbM1XCg2q4_SrA-5" target="mkL6k9nbM1XCg2q4_SrA-7" edge="1">
                    <mxGeometry relative="1" as="geometry"/>
                </mxCell>
                <mxCell id="mkL6k9nbM1XCg2q4_SrA-9" value="" style="ellipse;whiteSpace=wrap;html=1;aspect=fixed;" parent="GSYTnMA2Pb7o08oM1_KD-0" vertex="1">
                    <mxGeometry x="330" y="610" width="60" height="60" as="geometry"/>
                </mxCell>
                <mxCell id="mkL6k9nbM1XCg2q4_SrA-10" value="" style="edgeStyle=none;html=1;" parent="GSYTnMA2Pb7o08oM1_KD-0" source="mkL6k9nbM1XCg2q4_SrA-7" target="mkL6k9nbM1XCg2q4_SrA-9" edge="1">
                    <mxGeometry relative="1" as="geometry"/>
                </mxCell>
                <mxCell id="mkL6k9nbM1XCg2q4_SrA-11" value="" style="edgeStyle=segmentEdgeStyle;endArrow=classic;html=1;entryX=1;entryY=0.5;entryDx=0;entryDy=0;" parent="GSYTnMA2Pb7o08oM1_KD-0" source="mkL6k9nbM1XCg2q4_SrA-6" target="mkL6k9nbM1XCg2q4_SrA-9" edge="1">
                    <mxGeometry width="50" height="50" relative="1" as="geometry">
                        <mxPoint x="520" y="420" as="sourcePoint"/>
                        <mxPoint x="520" y="440.71067811865476" as="targetPoint"/>
                        <Array as="points">
                            <mxPoint x="520" y="640"/>
                        </Array>
                    </mxGeometry>
                </mxCell>
                <mxCell id="mkL6k9nbM1XCg2q4_SrA-12" value="Risk Free Calculation" style="rounded=1;whiteSpace=wrap;html=1;" parent="GSYTnMA2Pb7o08oM1_KD-0" vertex="1">
                    <mxGeometry x="150" y="890" width="120" height="60" as="geometry"/>
                </mxCell>
                <mxCell id="mkL6k9nbM1XCg2q4_SrA-14" value="Assets Calculations" style="rounded=0;whiteSpace=wrap;html=1;" parent="GSYTnMA2Pb7o08oM1_KD-0" vertex="1">
                    <mxGeometry x="300" y="890" width="120" height="60" as="geometry"/>
                </mxCell>
                <mxCell id="mkL6k9nbM1XCg2q4_SrA-16" value="Assets Return" style="whiteSpace=wrap;html=1;rounded=1;" parent="GSYTnMA2Pb7o08oM1_KD-0" vertex="1">
                    <mxGeometry x="300" y="1030" width="120" height="60" as="geometry"/>
                </mxCell>
                <mxCell id="mkL6k9nbM1XCg2q4_SrA-13" value="" style="edgeStyle=none;html=1;" parent="GSYTnMA2Pb7o08oM1_KD-0" source="mkL6k9nbM1XCg2q4_SrA-14" target="mkL6k9nbM1XCg2q4_SrA-16" edge="1">
                    <mxGeometry relative="1" as="geometry"/>
                </mxCell>
                <mxCell id="mkL6k9nbM1XCg2q4_SrA-17" value="Assets Covariance Matrix" style="whiteSpace=wrap;html=1;rounded=1;" parent="GSYTnMA2Pb7o08oM1_KD-0" vertex="1">
                    <mxGeometry x="500" y="1030" width="120" height="60" as="geometry"/>
                </mxCell>
                <mxCell id="mkL6k9nbM1XCg2q4_SrA-18" value="" style="edgeStyle=segmentEdgeStyle;endArrow=classic;html=1;" parent="GSYTnMA2Pb7o08oM1_KD-0" source="mkL6k9nbM1XCg2q4_SrA-14" target="mkL6k9nbM1XCg2q4_SrA-17" edge="1">
                    <mxGeometry width="50" height="50" relative="1" as="geometry">
                        <mxPoint x="420" y="970" as="sourcePoint"/>
                        <mxPoint x="490.71067811865476" y="920" as="targetPoint"/>
                    </mxGeometry>
                </mxCell>
                <mxCell id="mkL6k9nbM1XCg2q4_SrA-20" value="Sharpe Optimization" style="whiteSpace=wrap;html=1;rounded=0;" parent="GSYTnMA2Pb7o08oM1_KD-0" vertex="1">
                    <mxGeometry x="300" y="1170" width="120" height="60" as="geometry"/>
                </mxCell>
                <mxCell id="mkL6k9nbM1XCg2q4_SrA-15" value="" style="edgeStyle=none;html=1;" parent="GSYTnMA2Pb7o08oM1_KD-0" source="mkL6k9nbM1XCg2q4_SrA-16" target="mkL6k9nbM1XCg2q4_SrA-20" edge="1">
                    <mxGeometry relative="1" as="geometry"/>
                </mxCell>
                <mxCell id="mkL6k9nbM1XCg2q4_SrA-21" value="" style="edgeStyle=elbowEdgeStyle;elbow=vertical;endArrow=classic;html=1;entryX=0.5;entryY=0;entryDx=0;entryDy=0;" parent="GSYTnMA2Pb7o08oM1_KD-0" source="mkL6k9nbM1XCg2q4_SrA-17" target="mkL6k9nbM1XCg2q4_SrA-20" edge="1">
                    <mxGeometry width="50" height="50" relative="1" as="geometry">
                        <mxPoint x="560" y="1140" as="sourcePoint"/>
                        <mxPoint x="560" y="1160.7106781186549" as="targetPoint"/>
                    </mxGeometry>
                </mxCell>
                <mxCell id="mkL6k9nbM1XCg2q4_SrA-22" value="" style="edgeStyle=elbowEdgeStyle;elbow=vertical;endArrow=classic;html=1;" parent="GSYTnMA2Pb7o08oM1_KD-0" source="mkL6k9nbM1XCg2q4_SrA-12" edge="1">
                    <mxGeometry width="50" height="50" relative="1" as="geometry">
                        <mxPoint x="210" y="1000" as="sourcePoint"/>
                        <mxPoint x="359.99999999999955" y="1170" as="targetPoint"/>
                        <Array as="points">
                            <mxPoint x="280" y="1130"/>
                        </Array>
                    </mxGeometry>
                </mxCell>
                <mxCell id="mkL6k9nbM1XCg2q4_SrA-23" value="" style="edgeStyle=none;html=1;" parent="GSYTnMA2Pb7o08oM1_KD-0" source="mkL6k9nbM1XCg2q4_SrA-24" target="mkL6k9nbM1XCg2q4_SrA-14" edge="1">
                    <mxGeometry relative="1" as="geometry"/>
                </mxCell>
                <mxCell id="mkL6k9nbM1XCg2q4_SrA-24" value="Filter Time Range" style="whiteSpace=wrap;html=1;rounded=0;" parent="GSYTnMA2Pb7o08oM1_KD-0" vertex="1">
                    <mxGeometry x="300" y="750" width="120" height="60" as="geometry"/>
                </mxCell>
                <mxCell id="mkL6k9nbM1XCg2q4_SrA-8" value="" style="edgeStyle=none;html=1;" parent="GSYTnMA2Pb7o08oM1_KD-0" source="mkL6k9nbM1XCg2q4_SrA-9" target="mkL6k9nbM1XCg2q4_SrA-24" edge="1">
                    <mxGeometry relative="1" as="geometry"/>
                </mxCell>
                <mxCell id="mkL6k9nbM1XCg2q4_SrA-25" value="Number of periods to roll on time" style="whiteSpace=wrap;html=1;rounded=1;" parent="GSYTnMA2Pb7o08oM1_KD-0" vertex="1">
                    <mxGeometry x="80" y="70" width="120" height="60" as="geometry"/>
                </mxCell>
                <mxCell id="mkL6k9nbM1XCg2q4_SrA-26" value="" style="edgeStyle=segmentEdgeStyle;endArrow=classic;html=1;entryX=0;entryY=0.5;entryDx=0;entryDy=0;" parent="GSYTnMA2Pb7o08oM1_KD-0" source="mkL6k9nbM1XCg2q4_SrA-25" target="mkL6k9nbM1XCg2q4_SrA-24" edge="1">
                    <mxGeometry width="50" height="50" relative="1" as="geometry">
                        <mxPoint x="140" y="180" as="sourcePoint"/>
                        <mxPoint x="140" y="200.71067811865476" as="targetPoint"/>
                        <Array as="points">
                            <mxPoint x="140" y="780"/>
                        </Array>
                    </mxGeometry>
                </mxCell>
                <mxCell id="mkL6k9nbM1XCg2q4_SrA-28" value="Successfull Optimization?" style="rhombus;whiteSpace=wrap;html=1;rounded=1;" parent="GSYTnMA2Pb7o08oM1_KD-0" vertex="1">
                    <mxGeometry x="310" y="1290" width="100" height="100" as="geometry"/>
                </mxCell>
                <mxCell id="mkL6k9nbM1XCg2q4_SrA-19" value="" style="edgeStyle=none;html=1;" parent="GSYTnMA2Pb7o08oM1_KD-0" source="mkL6k9nbM1XCg2q4_SrA-20" target="mkL6k9nbM1XCg2q4_SrA-28" edge="1">
                    <mxGeometry relative="1" as="geometry"/>
                </mxCell>
                <mxCell id="mkL6k9nbM1XCg2q4_SrA-30" value="" style="ellipse;whiteSpace=wrap;html=1;aspect=fixed;" parent="GSYTnMA2Pb7o08oM1_KD-0" vertex="1">
                    <mxGeometry x="480" y="1300" width="80" height="80" as="geometry"/>
                </mxCell>
                <mxCell id="mkL6k9nbM1XCg2q4_SrA-31" value="yes" style="edgeStyle=none;html=1;" parent="GSYTnMA2Pb7o08oM1_KD-0" source="mkL6k9nbM1XCg2q4_SrA-28" target="mkL6k9nbM1XCg2q4_SrA-30" edge="1">
                    <mxGeometry relative="1" as="geometry"/>
                </mxCell>
                <mxCell id="mkL6k9nbM1XCg2q4_SrA-33" value="Assets Weights" style="rounded=1;whiteSpace=wrap;html=1;" parent="GSYTnMA2Pb7o08oM1_KD-0" vertex="1">
                    <mxGeometry x="620" y="1310" width="120" height="60" as="geometry"/>
                </mxCell>
                <mxCell id="mkL6k9nbM1XCg2q4_SrA-29" value="" style="edgeStyle=none;html=1;" parent="GSYTnMA2Pb7o08oM1_KD-0" source="mkL6k9nbM1XCg2q4_SrA-30" target="mkL6k9nbM1XCg2q4_SrA-33" edge="1">
                    <mxGeometry relative="1" as="geometry"/>
                </mxCell>
                <mxCell id="mkL6k9nbM1XCg2q4_SrA-35" value="Successfull Results" style="whiteSpace=wrap;html=1;rounded=1;" parent="GSYTnMA2Pb7o08oM1_KD-0" vertex="1">
                    <mxGeometry x="620" y="1170" width="120" height="60" as="geometry"/>
                </mxCell>
                <mxCell id="mkL6k9nbM1XCg2q4_SrA-37" value="Sharpe Value" style="whiteSpace=wrap;html=1;rounded=1;" parent="GSYTnMA2Pb7o08oM1_KD-0" vertex="1">
                    <mxGeometry x="620" y="1450" width="120" height="60" as="geometry"/>
                </mxCell>
                <mxCell id="mkL6k9nbM1XCg2q4_SrA-38" value="" style="edgeStyle=segmentEdgeStyle;endArrow=classic;html=1;entryX=0;entryY=0.5;entryDx=0;entryDy=0;" parent="GSYTnMA2Pb7o08oM1_KD-0" source="mkL6k9nbM1XCg2q4_SrA-30" target="mkL6k9nbM1XCg2q4_SrA-35" edge="1">
                    <mxGeometry width="50" height="50" relative="1" as="geometry">
                        <mxPoint x="520" y="1279.2893218813451" as="sourcePoint"/>
                        <mxPoint x="520" y="1229.2893218813451" as="targetPoint"/>
                        <Array as="points">
                            <mxPoint x="520" y="1200"/>
                        </Array>
                    </mxGeometry>
                </mxCell>
                <mxCell id="mkL6k9nbM1XCg2q4_SrA-39" value="" style="edgeStyle=segmentEdgeStyle;endArrow=classic;html=1;entryX=0;entryY=0.5;entryDx=0;entryDy=0;" parent="GSYTnMA2Pb7o08oM1_KD-0" source="mkL6k9nbM1XCg2q4_SrA-30" target="mkL6k9nbM1XCg2q4_SrA-37" edge="1">
                    <mxGeometry width="50" height="50" relative="1" as="geometry">
                        <mxPoint x="520" y="1430" as="sourcePoint"/>
                        <mxPoint x="520" y="1450.7106781186549" as="targetPoint"/>
                        <Array as="points">
                            <mxPoint x="520" y="1480"/>
                        </Array>
                    </mxGeometry>
                </mxCell>
                <mxCell id="mkL6k9nbM1XCg2q4_SrA-40" value="next rolling period" style="whiteSpace=wrap;html=1;rounded=0;" parent="GSYTnMA2Pb7o08oM1_KD-0" vertex="1">
                    <mxGeometry x="300" y="1570" width="120" height="60" as="geometry"/>
                </mxCell>
                <mxCell id="mkL6k9nbM1XCg2q4_SrA-27" value="no" style="edgeStyle=none;html=1;" parent="GSYTnMA2Pb7o08oM1_KD-0" source="mkL6k9nbM1XCg2q4_SrA-28" target="mkL6k9nbM1XCg2q4_SrA-40" edge="1">
                    <mxGeometry relative="1" as="geometry"/>
                </mxCell>
                <mxCell id="mkL6k9nbM1XCg2q4_SrA-41" value="" style="edgeStyle=elbowEdgeStyle;elbow=horizontal;endArrow=classic;html=1;entryX=0;entryY=0.5;entryDx=0;entryDy=0;" parent="GSYTnMA2Pb7o08oM1_KD-0" source="mkL6k9nbM1XCg2q4_SrA-40" target="mkL6k9nbM1XCg2q4_SrA-25" edge="1">
                    <mxGeometry width="50" height="50" relative="1" as="geometry">
                        <mxPoint x="229.28932188134524" y="1570" as="sourcePoint"/>
                        <mxPoint x="229.28932188134524" y="1520" as="targetPoint"/>
                        <Array as="points">
                            <mxPoint x="30" y="810"/>
                        </Array>
                    </mxGeometry>
                </mxCell>
                <mxCell id="mkL6k9nbM1XCg2q4_SrA-42" value="Count Susscessfull Results" style="whiteSpace=wrap;html=1;rounded=0;" parent="GSYTnMA2Pb7o08oM1_KD-0" vertex="1">
                    <mxGeometry x="820" y="1170" width="120" height="60" as="geometry"/>
                </mxCell>
                <mxCell id="mkL6k9nbM1XCg2q4_SrA-43" value="Add Assets Weights on Time Series" style="whiteSpace=wrap;html=1;rounded=0;" parent="GSYTnMA2Pb7o08oM1_KD-0" vertex="1">
                    <mxGeometry x="820" y="1310" width="120" height="60" as="geometry"/>
                </mxCell>
                <mxCell id="mkL6k9nbM1XCg2q4_SrA-44" value="Add Sharpe Value on Time Series" style="whiteSpace=wrap;html=1;rounded=0;" parent="GSYTnMA2Pb7o08oM1_KD-0" vertex="1">
                    <mxGeometry x="820" y="1450" width="120" height="60" as="geometry"/>
                </mxCell>
                <mxCell id="mkL6k9nbM1XCg2q4_SrA-46" value="" style="ellipse;whiteSpace=wrap;html=1;aspect=fixed;" parent="GSYTnMA2Pb7o08oM1_KD-0" vertex="1">
                    <mxGeometry x="1020" y="1310" width="60" height="60" as="geometry"/>
                </mxCell>
                <mxCell id="mkL6k9nbM1XCg2q4_SrA-34" value="" style="edgeStyle=none;html=1;" parent="GSYTnMA2Pb7o08oM1_KD-0" source="mkL6k9nbM1XCg2q4_SrA-35" target="mkL6k9nbM1XCg2q4_SrA-42" edge="1">
                    <mxGeometry relative="1" as="geometry"/>
                </mxCell>
                <mxCell id="mkL6k9nbM1XCg2q4_SrA-47" value="" style="edgeStyle=none;html=1;" parent="GSYTnMA2Pb7o08oM1_KD-0" source="mkL6k9nbM1XCg2q4_SrA-43" target="mkL6k9nbM1XCg2q4_SrA-46" edge="1">
                    <mxGeometry relative="1" as="geometry"/>
                </mxCell>
                <mxCell id="mkL6k9nbM1XCg2q4_SrA-48" value="" style="edgeStyle=segmentEdgeStyle;endArrow=classic;html=1;entryX=0.5;entryY=0;entryDx=0;entryDy=0;" parent="GSYTnMA2Pb7o08oM1_KD-0" source="mkL6k9nbM1XCg2q4_SrA-42" target="mkL6k9nbM1XCg2q4_SrA-46" edge="1">
                    <mxGeometry width="50" height="50" relative="1" as="geometry">
                        <mxPoint x="940" y="1250" as="sourcePoint"/>
                        <mxPoint x="1010.7106781186549" y="1200" as="targetPoint"/>
                    </mxGeometry>
                </mxCell>
                <mxCell id="mkL6k9nbM1XCg2q4_SrA-49" value="" style="edgeStyle=segmentEdgeStyle;endArrow=classic;html=1;entryX=0.5;entryY=1;entryDx=0;entryDy=0;" parent="GSYTnMA2Pb7o08oM1_KD-0" source="mkL6k9nbM1XCg2q4_SrA-44" target="mkL6k9nbM1XCg2q4_SrA-46" edge="1">
                    <mxGeometry width="50" height="50" relative="1" as="geometry">
                        <mxPoint x="940" y="1530" as="sourcePoint"/>
                        <mxPoint x="1010.7106781186549" y="1480" as="targetPoint"/>
                    </mxGeometry>
                </mxCell>
                <mxCell id="mkL6k9nbM1XCg2q4_SrA-50" value="" style="edgeStyle=elbowEdgeStyle;elbow=horizontal;endArrow=classic;html=1;entryX=1;entryY=0.5;entryDx=0;entryDy=0;" parent="GSYTnMA2Pb7o08oM1_KD-0" source="mkL6k9nbM1XCg2q4_SrA-46" target="mkL6k9nbM1XCg2q4_SrA-40" edge="1">
                    <mxGeometry width="50" height="50" relative="1" as="geometry">
                        <mxPoint x="1080" y="1390" as="sourcePoint"/>
                        <mxPoint x="1150.7106781186549" y="1340" as="targetPoint"/>
                        <Array as="points">
                            <mxPoint x="1110" y="1470"/>
                        </Array>
                    </mxGeometry>
                </mxCell>
                <mxCell id="mkL6k9nbM1XCg2q4_SrA-51" value="Count Successfull Results" style="whiteSpace=wrap;html=1;rounded=1;" parent="GSYTnMA2Pb7o08oM1_KD-0" vertex="1">
                    <mxGeometry x="1200" y="1170" width="120" height="60" as="geometry"/>
                </mxCell>
                <mxCell id="mkL6k9nbM1XCg2q4_SrA-52" value="Assets Weights on Time Series" style="whiteSpace=wrap;html=1;rounded=1;" parent="GSYTnMA2Pb7o08oM1_KD-0" vertex="1">
                    <mxGeometry x="1200" y="1310" width="120" height="60" as="geometry"/>
                </mxCell>
                <mxCell id="mkL6k9nbM1XCg2q4_SrA-53" value="Sharpe Value on Time Series" style="whiteSpace=wrap;html=1;rounded=1;" parent="GSYTnMA2Pb7o08oM1_KD-0" vertex="1">
                    <mxGeometry x="1200" y="1450" width="120" height="60" as="geometry"/>
                </mxCell>
                <mxCell id="mkL6k9nbM1XCg2q4_SrA-54" value="" style="edgeStyle=elbowEdgeStyle;elbow=horizontal;endArrow=classic;html=1;entryX=0;entryY=0.5;entryDx=0;entryDy=0;" parent="GSYTnMA2Pb7o08oM1_KD-0" source="mkL6k9nbM1XCg2q4_SrA-46" target="mkL6k9nbM1XCg2q4_SrA-51" edge="1">
                    <mxGeometry width="50" height="50" relative="1" as="geometry">
                        <mxPoint x="1080" y="1390" as="sourcePoint"/>
                        <mxPoint x="1150.7106781186549" y="1340" as="targetPoint"/>
                    </mxGeometry>
                </mxCell>
                <mxCell id="mkL6k9nbM1XCg2q4_SrA-55" value="" style="edgeStyle=elbowEdgeStyle;elbow=horizontal;endArrow=classic;html=1;entryX=0;entryY=0.5;entryDx=0;entryDy=0;" parent="GSYTnMA2Pb7o08oM1_KD-0" source="mkL6k9nbM1XCg2q4_SrA-46" target="mkL6k9nbM1XCg2q4_SrA-53" edge="1">
                    <mxGeometry width="50" height="50" relative="1" as="geometry">
                        <mxPoint x="1080" y="1390" as="sourcePoint"/>
                        <mxPoint x="1150.7106781186549" y="1340" as="targetPoint"/>
                    </mxGeometry>
                </mxCell>
                <mxCell id="mkL6k9nbM1XCg2q4_SrA-32" value="" style="edgeStyle=none;html=1;" parent="GSYTnMA2Pb7o08oM1_KD-0" source="mkL6k9nbM1XCg2q4_SrA-33" target="mkL6k9nbM1XCg2q4_SrA-43" edge="1">
                    <mxGeometry relative="1" as="geometry"/>
                </mxCell>
                <mxCell id="mkL6k9nbM1XCg2q4_SrA-36" value="" style="edgeStyle=none;html=1;" parent="GSYTnMA2Pb7o08oM1_KD-0" source="mkL6k9nbM1XCg2q4_SrA-37" target="mkL6k9nbM1XCg2q4_SrA-44" edge="1">
                    <mxGeometry relative="1" as="geometry"/>
                </mxCell>
                <mxCell id="mkL6k9nbM1XCg2q4_SrA-45" style="edgeStyle=none;html=1;exitX=1;exitY=0.5;exitDx=0;exitDy=0;entryX=0;entryY=0.5;entryDx=0;entryDy=0;" parent="GSYTnMA2Pb7o08oM1_KD-0" source="mkL6k9nbM1XCg2q4_SrA-46" target="mkL6k9nbM1XCg2q4_SrA-52" edge="1">
                    <mxGeometry relative="1" as="geometry"/>
                </mxCell>
            </root>
        </mxGraphModel>
    </diagram>
    <diagram id="LKOY9zevt68NWYHKHOxH" name="Assets Calculations">
        <mxGraphModel dx="1129" dy="456" grid="1" gridSize="10" guides="1" tooltips="1" connect="1" arrows="1" fold="1" page="1" pageScale="1" pageWidth="850" pageHeight="1100" math="0" shadow="0">
            <root>
                <mxCell id="rFy_MB5eD9q3W6k5PaZ1-0"/>
                <mxCell id="rFy_MB5eD9q3W6k5PaZ1-1" parent="rFy_MB5eD9q3W6k5PaZ1-0"/>
                <mxCell id="ymGJc3WJG4bdhi-EEt7--0" value="Content" parent="rFy_MB5eD9q3W6k5PaZ1-0"/>
                <mxCell id="agtAkfgABiVRU_ef-2wo-1" value="Assets Calculations" style="swimlane;" parent="ymGJc3WJG4bdhi-EEt7--0" vertex="1">
                    <mxGeometry x="49" y="50" width="750" height="2460" as="geometry"/>
                </mxCell>
                <mxCell id="ClpkXNvcCLbhigbtfGs3-0" value="" style="edgeStyle=none;html=1;" parent="agtAkfgABiVRU_ef-2wo-1" source="agtAkfgABiVRU_ef-2wo-3" target="agtAkfgABiVRU_ef-2wo-17" edge="1">
                    <mxGeometry relative="1" as="geometry"/>
                </mxCell>
                <mxCell id="agtAkfgABiVRU_ef-2wo-3" value="Assets Values" style="rounded=1;whiteSpace=wrap;html=1;" parent="agtAkfgABiVRU_ef-2wo-1" vertex="1">
                    <mxGeometry x="290" y="50" width="120" height="60" as="geometry"/>
                </mxCell>
                <mxCell id="agtAkfgABiVRU_ef-2wo-4" value="" style="edgeStyle=none;html=1;" parent="agtAkfgABiVRU_ef-2wo-1" target="agtAkfgABiVRU_ef-2wo-6" edge="1">
                    <mxGeometry relative="1" as="geometry">
                        <mxPoint x="350" y="280" as="sourcePoint"/>
                    </mxGeometry>
                </mxCell>
                <mxCell id="agtAkfgABiVRU_ef-2wo-5" value="Assets Values modified per period type" style="whiteSpace=wrap;html=1;rounded=1;" parent="agtAkfgABiVRU_ef-2wo-1" vertex="1">
                    <mxGeometry x="467" y="190" width="120" height="60" as="geometry"/>
                </mxCell>
                <mxCell id="agtAkfgABiVRU_ef-2wo-6" value="No change on data" style="whiteSpace=wrap;html=1;rounded=1;" parent="agtAkfgABiVRU_ef-2wo-1" vertex="1">
                    <mxGeometry x="290" y="350" width="120" height="60" as="geometry"/>
                </mxCell>
                <mxCell id="agtAkfgABiVRU_ef-2wo-8" value="" style="ellipse;whiteSpace=wrap;html=1;aspect=fixed;" parent="agtAkfgABiVRU_ef-2wo-1" vertex="1">
                    <mxGeometry x="320" y="490" width="60" height="60" as="geometry"/>
                </mxCell>
                <mxCell id="agtAkfgABiVRU_ef-2wo-9" value="" style="edgeStyle=none;html=1;" parent="agtAkfgABiVRU_ef-2wo-1" source="agtAkfgABiVRU_ef-2wo-6" target="agtAkfgABiVRU_ef-2wo-8" edge="1">
                    <mxGeometry relative="1" as="geometry"/>
                </mxCell>
                <mxCell id="agtAkfgABiVRU_ef-2wo-10" value="" style="edgeStyle=elbowEdgeStyle;elbow=horizontal;endArrow=classic;html=1;entryX=1;entryY=0.5;entryDx=0;entryDy=0;" parent="agtAkfgABiVRU_ef-2wo-1" target="agtAkfgABiVRU_ef-2wo-8" edge="1">
                    <mxGeometry width="50" height="50" relative="1" as="geometry">
                        <mxPoint x="527" y="250" as="sourcePoint"/>
                        <mxPoint x="527" y="320.71067811865476" as="targetPoint"/>
                        <Array as="points">
                            <mxPoint x="527" y="350"/>
                        </Array>
                    </mxGeometry>
                </mxCell>
                <mxCell id="agtAkfgABiVRU_ef-2wo-13" value="Apply Moving Average or Exponential MV?" style="rhombus;whiteSpace=wrap;html=1;rounded=1;" parent="agtAkfgABiVRU_ef-2wo-1" vertex="1">
                    <mxGeometry x="285" y="1092" width="130" height="130" as="geometry"/>
                </mxCell>
                <mxCell id="agtAkfgABiVRU_ef-2wo-14" value="Assets Values Modified by Moving Average type" style="rounded=1;whiteSpace=wrap;html=1;" parent="agtAkfgABiVRU_ef-2wo-1" vertex="1">
                    <mxGeometry x="460" y="1127" width="120" height="60" as="geometry"/>
                </mxCell>
                <mxCell id="agtAkfgABiVRU_ef-2wo-11" value="yes" style="edgeStyle=none;html=1;" parent="agtAkfgABiVRU_ef-2wo-1" source="agtAkfgABiVRU_ef-2wo-13" target="agtAkfgABiVRU_ef-2wo-14" edge="1">
                    <mxGeometry relative="1" as="geometry"/>
                </mxCell>
                <mxCell id="agtAkfgABiVRU_ef-2wo-15" value="no" style="edgeStyle=none;html=1;" parent="agtAkfgABiVRU_ef-2wo-1" source="agtAkfgABiVRU_ef-2wo-17" target="agtAkfgABiVRU_ef-2wo-6" edge="1">
                    <mxGeometry relative="1" as="geometry"/>
                </mxCell>
                <mxCell id="agtAkfgABiVRU_ef-2wo-16" value="yes" style="edgeStyle=none;html=1;" parent="agtAkfgABiVRU_ef-2wo-1" source="agtAkfgABiVRU_ef-2wo-17" target="agtAkfgABiVRU_ef-2wo-5" edge="1">
                    <mxGeometry relative="1" as="geometry"/>
                </mxCell>
                <mxCell id="agtAkfgABiVRU_ef-2wo-17" value="Change interval type?" style="rhombus;whiteSpace=wrap;html=1;rounded=1;" parent="agtAkfgABiVRU_ef-2wo-1" vertex="1">
                    <mxGeometry x="295" y="170" width="110" height="100" as="geometry"/>
                </mxCell>
                <mxCell id="agtAkfgABiVRU_ef-2wo-20" value="Data already on interval range?" style="rhombus;whiteSpace=wrap;html=1;rounded=1;" parent="agtAkfgABiVRU_ef-2wo-1" vertex="1">
                    <mxGeometry x="295" y="610" width="110" height="100" as="geometry"/>
                </mxCell>
                <mxCell id="agtAkfgABiVRU_ef-2wo-7" value="" style="edgeStyle=none;html=1;" parent="agtAkfgABiVRU_ef-2wo-1" source="agtAkfgABiVRU_ef-2wo-8" target="agtAkfgABiVRU_ef-2wo-20" edge="1">
                    <mxGeometry relative="1" as="geometry"/>
                </mxCell>
                <mxCell id="agtAkfgABiVRU_ef-2wo-21" value="No change on data" style="whiteSpace=wrap;html=1;rounded=1;" parent="agtAkfgABiVRU_ef-2wo-1" vertex="1">
                    <mxGeometry x="480" y="630" width="120" height="60" as="geometry"/>
                </mxCell>
                <mxCell id="agtAkfgABiVRU_ef-2wo-18" value="yes" style="edgeStyle=none;html=1;" parent="agtAkfgABiVRU_ef-2wo-1" source="agtAkfgABiVRU_ef-2wo-20" target="agtAkfgABiVRU_ef-2wo-21" edge="1">
                    <mxGeometry relative="1" as="geometry"/>
                </mxCell>
                <mxCell id="agtAkfgABiVRU_ef-2wo-22" value="Crop data on the specified interval range" style="whiteSpace=wrap;html=1;rounded=1;" parent="agtAkfgABiVRU_ef-2wo-1" vertex="1">
                    <mxGeometry x="290" y="810" width="120" height="60" as="geometry"/>
                </mxCell>
                <mxCell id="agtAkfgABiVRU_ef-2wo-19" value="no" style="edgeStyle=none;html=1;" parent="agtAkfgABiVRU_ef-2wo-1" source="agtAkfgABiVRU_ef-2wo-20" target="agtAkfgABiVRU_ef-2wo-22" edge="1">
                    <mxGeometry relative="1" as="geometry"/>
                </mxCell>
                <mxCell id="agtAkfgABiVRU_ef-2wo-23" value="" style="edgeStyle=none;html=1;" parent="agtAkfgABiVRU_ef-2wo-1" source="agtAkfgABiVRU_ef-2wo-24" target="agtAkfgABiVRU_ef-2wo-13" edge="1">
                    <mxGeometry relative="1" as="geometry"/>
                </mxCell>
                <mxCell id="agtAkfgABiVRU_ef-2wo-24" value="" style="ellipse;whiteSpace=wrap;html=1;aspect=fixed;" parent="agtAkfgABiVRU_ef-2wo-1" vertex="1">
                    <mxGeometry x="320" y="950" width="60" height="60" as="geometry"/>
                </mxCell>
                <mxCell id="agtAkfgABiVRU_ef-2wo-25" value="" style="edgeStyle=none;html=1;" parent="agtAkfgABiVRU_ef-2wo-1" source="agtAkfgABiVRU_ef-2wo-22" target="agtAkfgABiVRU_ef-2wo-24" edge="1">
                    <mxGeometry relative="1" as="geometry"/>
                </mxCell>
                <mxCell id="agtAkfgABiVRU_ef-2wo-26" value="" style="edgeStyle=elbowEdgeStyle;elbow=horizontal;endArrow=classic;html=1;exitX=0.5;exitY=1;exitDx=0;exitDy=0;entryX=1;entryY=0.5;entryDx=0;entryDy=0;" parent="agtAkfgABiVRU_ef-2wo-1" source="agtAkfgABiVRU_ef-2wo-21" target="agtAkfgABiVRU_ef-2wo-24" edge="1">
                    <mxGeometry width="50" height="50" relative="1" as="geometry">
                        <mxPoint x="575" y="910" as="sourcePoint"/>
                        <mxPoint x="625" y="860" as="targetPoint"/>
                        <Array as="points">
                            <mxPoint x="540" y="850"/>
                        </Array>
                    </mxGeometry>
                </mxCell>
                <mxCell id="agtAkfgABiVRU_ef-2wo-27" value="No change on data" style="whiteSpace=wrap;html=1;rounded=1;" parent="agtAkfgABiVRU_ef-2wo-1" vertex="1">
                    <mxGeometry x="290" y="1337" width="120" height="60" as="geometry"/>
                </mxCell>
                <mxCell id="agtAkfgABiVRU_ef-2wo-29" value="" style="ellipse;whiteSpace=wrap;html=1;aspect=fixed;" parent="agtAkfgABiVRU_ef-2wo-1" vertex="1">
                    <mxGeometry x="320" y="1477" width="60" height="60" as="geometry"/>
                </mxCell>
                <mxCell id="agtAkfgABiVRU_ef-2wo-12" value="no" style="edgeStyle=none;html=1;" parent="agtAkfgABiVRU_ef-2wo-1" source="agtAkfgABiVRU_ef-2wo-13" target="agtAkfgABiVRU_ef-2wo-27" edge="1">
                    <mxGeometry relative="1" as="geometry"/>
                </mxCell>
                <mxCell id="agtAkfgABiVRU_ef-2wo-30" value="" style="edgeStyle=none;html=1;" parent="agtAkfgABiVRU_ef-2wo-1" source="agtAkfgABiVRU_ef-2wo-27" target="agtAkfgABiVRU_ef-2wo-29" edge="1">
                    <mxGeometry relative="1" as="geometry"/>
                </mxCell>
                <mxCell id="agtAkfgABiVRU_ef-2wo-31" value="" style="edgeStyle=elbowEdgeStyle;elbow=horizontal;endArrow=classic;html=1;entryX=1;entryY=0.5;entryDx=0;entryDy=0;exitX=0.5;exitY=1;exitDx=0;exitDy=0;" parent="agtAkfgABiVRU_ef-2wo-1" source="agtAkfgABiVRU_ef-2wo-14" target="agtAkfgABiVRU_ef-2wo-29" edge="1">
                    <mxGeometry width="50" height="50" relative="1" as="geometry">
                        <mxPoint x="565" y="1447" as="sourcePoint"/>
                        <mxPoint x="615" y="1397" as="targetPoint"/>
                        <Array as="points">
                            <mxPoint x="520" y="1350"/>
                        </Array>
                    </mxGeometry>
                </mxCell>
                <mxCell id="agtAkfgABiVRU_ef-2wo-32" value="Assets Risk" style="rounded=1;whiteSpace=wrap;html=1;" parent="agtAkfgABiVRU_ef-2wo-1" vertex="1">
                    <mxGeometry x="617" y="1630" width="120" height="60" as="geometry"/>
                </mxCell>
                <mxCell id="agtAkfgABiVRU_ef-2wo-33" value="Assets Covariance Matrix" style="whiteSpace=wrap;html=1;rounded=1;" parent="agtAkfgABiVRU_ef-2wo-1" vertex="1">
                    <mxGeometry x="617" y="1770" width="120" height="60" as="geometry"/>
                </mxCell>
                <mxCell id="agtAkfgABiVRU_ef-2wo-34" value="" style="edgeStyle=elbowEdgeStyle;elbow=horizontal;endArrow=classic;html=1;entryX=0;entryY=0.5;entryDx=0;entryDy=0;" parent="agtAkfgABiVRU_ef-2wo-1" source="agtAkfgABiVRU_ef-2wo-29" target="agtAkfgABiVRU_ef-2wo-32" edge="1">
                    <mxGeometry width="50" height="50" relative="1" as="geometry">
                        <mxPoint x="350" y="1587" as="sourcePoint"/>
                        <mxPoint x="350" y="1607.7106781186549" as="targetPoint"/>
                        <Array as="points">
                            <mxPoint x="350" y="1610"/>
                        </Array>
                    </mxGeometry>
                </mxCell>
                <mxCell id="agtAkfgABiVRU_ef-2wo-35" value="" style="edgeStyle=elbowEdgeStyle;elbow=horizontal;endArrow=classic;html=1;entryX=0;entryY=0.5;entryDx=0;entryDy=0;" parent="agtAkfgABiVRU_ef-2wo-1" source="agtAkfgABiVRU_ef-2wo-29" target="agtAkfgABiVRU_ef-2wo-33" edge="1">
                    <mxGeometry width="50" height="50" relative="1" as="geometry">
                        <mxPoint x="350" y="1587" as="sourcePoint"/>
                        <mxPoint x="350" y="1607.7106781186549" as="targetPoint"/>
                        <Array as="points">
                            <mxPoint x="350" y="1680"/>
                        </Array>
                    </mxGeometry>
                </mxCell>
                <mxCell id="agtAkfgABiVRU_ef-2wo-37" value="Return Calculation Method" style="ellipse;whiteSpace=wrap;html=1;aspect=fixed;" parent="agtAkfgABiVRU_ef-2wo-1" vertex="1">
                    <mxGeometry x="310" y="1890" width="80" height="80" as="geometry"/>
                </mxCell>
                <mxCell id="agtAkfgABiVRU_ef-2wo-28" style="edgeStyle=none;html=1;exitX=0.5;exitY=1;exitDx=0;exitDy=0;entryX=0.5;entryY=0;entryDx=0;entryDy=0;" parent="agtAkfgABiVRU_ef-2wo-1" source="agtAkfgABiVRU_ef-2wo-29" target="agtAkfgABiVRU_ef-2wo-37" edge="1">
                    <mxGeometry relative="1" as="geometry">
                        <mxPoint x="350" y="1930" as="targetPoint"/>
                    </mxGeometry>
                </mxCell>
                <mxCell id="agtAkfgABiVRU_ef-2wo-38" value="Auto Arima" style="rounded=1;whiteSpace=wrap;html=1;" parent="agtAkfgABiVRU_ef-2wo-1" vertex="1">
                    <mxGeometry x="290" y="2060" width="120" height="60" as="geometry"/>
                </mxCell>
                <mxCell id="agtAkfgABiVRU_ef-2wo-39" value="Mean" style="whiteSpace=wrap;html=1;rounded=1;" parent="agtAkfgABiVRU_ef-2wo-1" vertex="1">
                    <mxGeometry x="90" y="2060" width="120" height="60" as="geometry"/>
                </mxCell>
                <mxCell id="agtAkfgABiVRU_ef-2wo-40" value="CAPM" style="whiteSpace=wrap;html=1;rounded=1;" parent="agtAkfgABiVRU_ef-2wo-1" vertex="1">
                    <mxGeometry x="490" y="2060" width="120" height="60" as="geometry"/>
                </mxCell>
                <mxCell id="agtAkfgABiVRU_ef-2wo-41" value="" style="edgeStyle=elbowEdgeStyle;elbow=horizontal;endArrow=classic;html=1;entryX=0.5;entryY=0;entryDx=0;entryDy=0;" parent="agtAkfgABiVRU_ef-2wo-1" source="agtAkfgABiVRU_ef-2wo-37" target="agtAkfgABiVRU_ef-2wo-39" edge="1">
                    <mxGeometry width="50" height="50" relative="1" as="geometry">
                        <mxPoint x="239.28932188134524" y="1980" as="sourcePoint"/>
                        <mxPoint x="239.28932188134524" y="1930" as="targetPoint"/>
                        <Array as="points">
                            <mxPoint x="150" y="1980"/>
                        </Array>
                    </mxGeometry>
                </mxCell>
                <mxCell id="agtAkfgABiVRU_ef-2wo-42" value="" style="edgeStyle=elbowEdgeStyle;elbow=vertical;endArrow=classic;html=1;entryX=0.5;entryY=0;entryDx=0;entryDy=0;" parent="agtAkfgABiVRU_ef-2wo-1" source="agtAkfgABiVRU_ef-2wo-37" target="agtAkfgABiVRU_ef-2wo-40" edge="1">
                    <mxGeometry width="50" height="50" relative="1" as="geometry">
                        <mxPoint x="390" y="1980" as="sourcePoint"/>
                        <mxPoint x="460.71067811865476" y="1930" as="targetPoint"/>
                        <Array as="points">
                            <mxPoint x="455" y="1930"/>
                        </Array>
                    </mxGeometry>
                </mxCell>
                <mxCell id="agtAkfgABiVRU_ef-2wo-44" value="" style="ellipse;whiteSpace=wrap;html=1;aspect=fixed;" parent="agtAkfgABiVRU_ef-2wo-1" vertex="1">
                    <mxGeometry x="320" y="2200" width="60" height="60" as="geometry"/>
                </mxCell>
                <mxCell id="agtAkfgABiVRU_ef-2wo-36" value="" style="edgeStyle=none;html=1;" parent="agtAkfgABiVRU_ef-2wo-1" source="agtAkfgABiVRU_ef-2wo-37" target="agtAkfgABiVRU_ef-2wo-38" edge="1">
                    <mxGeometry relative="1" as="geometry"/>
                </mxCell>
                <mxCell id="agtAkfgABiVRU_ef-2wo-45" value="" style="edgeStyle=none;html=1;" parent="agtAkfgABiVRU_ef-2wo-1" source="agtAkfgABiVRU_ef-2wo-38" target="agtAkfgABiVRU_ef-2wo-44" edge="1">
                    <mxGeometry relative="1" as="geometry"/>
                </mxCell>
                <mxCell id="agtAkfgABiVRU_ef-2wo-46" value="Assets Return" style="rounded=1;whiteSpace=wrap;html=1;" parent="agtAkfgABiVRU_ef-2wo-1" vertex="1">
                    <mxGeometry x="290" y="2340" width="120" height="60" as="geometry"/>
                </mxCell>
                <mxCell id="agtAkfgABiVRU_ef-2wo-47" value="" style="edgeStyle=elbowEdgeStyle;elbow=vertical;endArrow=classic;html=1;entryX=0;entryY=0.5;entryDx=0;entryDy=0;" parent="agtAkfgABiVRU_ef-2wo-1" source="agtAkfgABiVRU_ef-2wo-39" target="agtAkfgABiVRU_ef-2wo-44" edge="1">
                    <mxGeometry width="50" height="50" relative="1" as="geometry">
                        <mxPoint x="150" y="2170" as="sourcePoint"/>
                        <mxPoint x="150" y="2190.710678118655" as="targetPoint"/>
                        <Array as="points">
                            <mxPoint x="235" y="2230"/>
                        </Array>
                    </mxGeometry>
                </mxCell>
                <mxCell id="agtAkfgABiVRU_ef-2wo-48" value="" style="edgeStyle=elbowEdgeStyle;elbow=vertical;endArrow=classic;html=1;entryX=1;entryY=0.5;entryDx=0;entryDy=0;" parent="agtAkfgABiVRU_ef-2wo-1" source="agtAkfgABiVRU_ef-2wo-40" target="agtAkfgABiVRU_ef-2wo-44" edge="1">
                    <mxGeometry width="50" height="50" relative="1" as="geometry">
                        <mxPoint x="550" y="2170" as="sourcePoint"/>
                        <mxPoint x="550" y="2190.710678118655" as="targetPoint"/>
                        <Array as="points">
                            <mxPoint x="475" y="2230"/>
                        </Array>
                    </mxGeometry>
                </mxCell>
                <mxCell id="agtAkfgABiVRU_ef-2wo-43" value="" style="edgeStyle=none;html=1;" parent="agtAkfgABiVRU_ef-2wo-1" source="agtAkfgABiVRU_ef-2wo-44" target="agtAkfgABiVRU_ef-2wo-46" edge="1">
                    <mxGeometry relative="1" as="geometry"/>
                </mxCell>
            </root>
        </mxGraphModel>
    </diagram>
    <diagram id="P9f6GX-cIg43IIes_GqR" name="Sharpe Optmization">
        <mxGraphModel dx="909" dy="456" grid="1" gridSize="10" guides="1" tooltips="1" connect="1" arrows="1" fold="1" page="1" pageScale="1" pageWidth="850" pageHeight="1100" math="0" shadow="0">
            <root>
                <mxCell id="I-mdOrN8gTfFMfwM3GHX-0"/>
                <mxCell id="I-mdOrN8gTfFMfwM3GHX-1" parent="I-mdOrN8gTfFMfwM3GHX-0"/>
                <mxCell id="MIHDzkHLezLUX0R7cL2l-0" value="Content" parent="I-mdOrN8gTfFMfwM3GHX-0"/>
                <mxCell id="H-oLl8-ljulFiYhovJ-D-1" value="Sharpe Optmization" style="swimlane;" parent="MIHDzkHLezLUX0R7cL2l-0" vertex="1">
                    <mxGeometry x="30" y="40" width="810" height="690" as="geometry"/>
                </mxCell>
                <mxCell id="H-oLl8-ljulFiYhovJ-D-2" value="Assets Return" style="rounded=1;whiteSpace=wrap;html=1;" parent="H-oLl8-ljulFiYhovJ-D-1" vertex="1">
                    <mxGeometry x="225" y="46" width="120" height="60" as="geometry"/>
                </mxCell>
                <mxCell id="H-oLl8-ljulFiYhovJ-D-3" value="Assets Covariance Matrix" style="whiteSpace=wrap;html=1;rounded=1;" parent="H-oLl8-ljulFiYhovJ-D-1" vertex="1">
                    <mxGeometry x="425" y="46" width="120" height="60" as="geometry"/>
                </mxCell>
                <mxCell id="H-oLl8-ljulFiYhovJ-D-4" value="Risk Free Value" style="whiteSpace=wrap;html=1;rounded=1;" parent="H-oLl8-ljulFiYhovJ-D-1" vertex="1">
                    <mxGeometry x="625" y="46" width="120" height="60" as="geometry"/>
                </mxCell>
                <mxCell id="H-oLl8-ljulFiYhovJ-D-5" value="Random Dirichlet Weights for first iteration" style="rounded=1;whiteSpace=wrap;html=1;" parent="H-oLl8-ljulFiYhovJ-D-1" vertex="1">
                    <mxGeometry x="25" y="156" width="120" height="60" as="geometry"/>
                </mxCell>
                <mxCell id="H-oLl8-ljulFiYhovJ-D-6" value="" style="edgeStyle=none;html=1;" parent="H-oLl8-ljulFiYhovJ-D-1" source="H-oLl8-ljulFiYhovJ-D-7" target="H-oLl8-ljulFiYhovJ-D-13" edge="1">
                    <mxGeometry relative="1" as="geometry"/>
                </mxCell>
                <mxCell id="H-oLl8-ljulFiYhovJ-D-7" value="Calculate Sharpe Value" style="rounded=0;whiteSpace=wrap;html=1;" parent="H-oLl8-ljulFiYhovJ-D-1" vertex="1">
                    <mxGeometry x="320" y="316" width="120" height="60" as="geometry"/>
                </mxCell>
                <mxCell id="H-oLl8-ljulFiYhovJ-D-8" value="" style="edgeStyle=elbowEdgeStyle;elbow=vertical;endArrow=classic;html=1;entryX=0.5;entryY=0;entryDx=0;entryDy=0;" parent="H-oLl8-ljulFiYhovJ-D-1" source="H-oLl8-ljulFiYhovJ-D-5" target="H-oLl8-ljulFiYhovJ-D-7" edge="1">
                    <mxGeometry width="50" height="50" relative="1" as="geometry">
                        <mxPoint x="85" y="266" as="sourcePoint"/>
                        <mxPoint x="85" y="286.71067811865476" as="targetPoint"/>
                    </mxGeometry>
                </mxCell>
                <mxCell id="H-oLl8-ljulFiYhovJ-D-9" value="" style="edgeStyle=elbowEdgeStyle;elbow=vertical;endArrow=classic;html=1;entryX=0.5;entryY=0;entryDx=0;entryDy=0;" parent="H-oLl8-ljulFiYhovJ-D-1" source="H-oLl8-ljulFiYhovJ-D-2" target="H-oLl8-ljulFiYhovJ-D-7" edge="1">
                    <mxGeometry width="50" height="50" relative="1" as="geometry">
                        <mxPoint x="285" y="156" as="sourcePoint"/>
                        <mxPoint x="285" y="176.71067811865476" as="targetPoint"/>
                    </mxGeometry>
                </mxCell>
                <mxCell id="H-oLl8-ljulFiYhovJ-D-10" value="" style="edgeStyle=elbowEdgeStyle;elbow=vertical;endArrow=classic;html=1;entryX=0.5;entryY=0;entryDx=0;entryDy=0;" parent="H-oLl8-ljulFiYhovJ-D-1" source="H-oLl8-ljulFiYhovJ-D-3" target="H-oLl8-ljulFiYhovJ-D-7" edge="1">
                    <mxGeometry width="50" height="50" relative="1" as="geometry">
                        <mxPoint x="485" y="156" as="sourcePoint"/>
                        <mxPoint x="485" y="176.71067811865476" as="targetPoint"/>
                    </mxGeometry>
                </mxCell>
                <mxCell id="H-oLl8-ljulFiYhovJ-D-11" value="" style="edgeStyle=elbowEdgeStyle;elbow=vertical;endArrow=classic;html=1;entryX=0.5;entryY=0;entryDx=0;entryDy=0;" parent="H-oLl8-ljulFiYhovJ-D-1" source="H-oLl8-ljulFiYhovJ-D-4" target="H-oLl8-ljulFiYhovJ-D-7" edge="1">
                    <mxGeometry width="50" height="50" relative="1" as="geometry">
                        <mxPoint x="685" y="156" as="sourcePoint"/>
                        <mxPoint x="685" y="176.71067811865476" as="targetPoint"/>
                    </mxGeometry>
                </mxCell>
                <mxCell id="H-oLl8-ljulFiYhovJ-D-12" value="no" style="edgeStyle=none;html=1;" parent="H-oLl8-ljulFiYhovJ-D-1" source="H-oLl8-ljulFiYhovJ-D-13" target="H-oLl8-ljulFiYhovJ-D-21" edge="1">
                    <mxGeometry relative="1" as="geometry"/>
                </mxCell>
                <mxCell id="H-oLl8-ljulFiYhovJ-D-13" value="Check If maximum Sharpe" style="rhombus;whiteSpace=wrap;html=1;rounded=1;" parent="H-oLl8-ljulFiYhovJ-D-1" vertex="1">
                    <mxGeometry x="335" y="446" width="90" height="80" as="geometry"/>
                </mxCell>
                <mxCell id="H-oLl8-ljulFiYhovJ-D-14" value="" style="edgeStyle=none;html=1;" parent="H-oLl8-ljulFiYhovJ-D-1" source="H-oLl8-ljulFiYhovJ-D-15" target="H-oLl8-ljulFiYhovJ-D-17" edge="1">
                    <mxGeometry relative="1" as="geometry"/>
                </mxCell>
                <mxCell id="H-oLl8-ljulFiYhovJ-D-15" value="" style="ellipse;whiteSpace=wrap;html=1;aspect=fixed;" parent="H-oLl8-ljulFiYhovJ-D-1" vertex="1">
                    <mxGeometry x="505" y="446" width="80" height="80" as="geometry"/>
                </mxCell>
                <mxCell id="H-oLl8-ljulFiYhovJ-D-16" value="yes" style="edgeStyle=none;html=1;" parent="H-oLl8-ljulFiYhovJ-D-1" source="H-oLl8-ljulFiYhovJ-D-13" target="H-oLl8-ljulFiYhovJ-D-15" edge="1">
                    <mxGeometry relative="1" as="geometry"/>
                </mxCell>
                <mxCell id="H-oLl8-ljulFiYhovJ-D-17" value="Assets Weights" style="rounded=1;whiteSpace=wrap;html=1;" parent="H-oLl8-ljulFiYhovJ-D-1" vertex="1">
                    <mxGeometry x="645" y="456" width="120" height="60" as="geometry"/>
                </mxCell>
                <mxCell id="H-oLl8-ljulFiYhovJ-D-18" value="Sharpe Value" style="whiteSpace=wrap;html=1;rounded=1;" parent="H-oLl8-ljulFiYhovJ-D-1" vertex="1">
                    <mxGeometry x="645" y="596" width="120" height="60" as="geometry"/>
                </mxCell>
                <mxCell id="H-oLl8-ljulFiYhovJ-D-19" value="" style="edgeStyle=elbowEdgeStyle;elbow=vertical;endArrow=classic;html=1;entryX=0;entryY=0.5;entryDx=0;entryDy=0;" parent="H-oLl8-ljulFiYhovJ-D-1" source="H-oLl8-ljulFiYhovJ-D-15" target="H-oLl8-ljulFiYhovJ-D-18" edge="1">
                    <mxGeometry width="50" height="50" relative="1" as="geometry">
                        <mxPoint x="545" y="576" as="sourcePoint"/>
                        <mxPoint x="545" y="596.7106781186548" as="targetPoint"/>
                        <Array as="points">
                            <mxPoint x="595" y="626"/>
                        </Array>
                    </mxGeometry>
                </mxCell>
                <mxCell id="H-oLl8-ljulFiYhovJ-D-20" value="" style="edgeStyle=none;html=1;" parent="H-oLl8-ljulFiYhovJ-D-1" source="H-oLl8-ljulFiYhovJ-D-21" target="H-oLl8-ljulFiYhovJ-D-26" edge="1">
                    <mxGeometry relative="1" as="geometry"/>
                </mxCell>
                <mxCell id="H-oLl8-ljulFiYhovJ-D-21" value="Sequential Least Square Programing Step" style="whiteSpace=wrap;html=1;rounded=0;" parent="H-oLl8-ljulFiYhovJ-D-1" vertex="1">
                    <mxGeometry x="150" y="456" width="120" height="60" as="geometry"/>
                </mxCell>
                <mxCell id="H-oLl8-ljulFiYhovJ-D-22" value="Assets Bounderies" style="rounded=1;whiteSpace=wrap;html=1;" parent="H-oLl8-ljulFiYhovJ-D-1" vertex="1">
                    <mxGeometry x="62" y="596" width="120" height="60" as="geometry"/>
                </mxCell>
                <mxCell id="H-oLl8-ljulFiYhovJ-D-23" value="Assets Sum Constraint" style="rounded=1;whiteSpace=wrap;html=1;" parent="H-oLl8-ljulFiYhovJ-D-1" vertex="1">
                    <mxGeometry x="233" y="596" width="120" height="60" as="geometry"/>
                </mxCell>
                <mxCell id="H-oLl8-ljulFiYhovJ-D-24" value="" style="edgeStyle=elbowEdgeStyle;elbow=vertical;endArrow=classic;html=1;entryX=0.5;entryY=1;entryDx=0;entryDy=0;" parent="H-oLl8-ljulFiYhovJ-D-1" source="H-oLl8-ljulFiYhovJ-D-22" target="H-oLl8-ljulFiYhovJ-D-21" edge="1">
                    <mxGeometry width="50" height="50" relative="1" as="geometry">
                        <mxPoint x="515" y="346" as="sourcePoint"/>
                        <mxPoint x="515" y="366.71067811865476" as="targetPoint"/>
                        <Array as="points">
                            <mxPoint x="125" y="556"/>
                            <mxPoint x="125" y="566"/>
                        </Array>
                    </mxGeometry>
                </mxCell>
                <mxCell id="H-oLl8-ljulFiYhovJ-D-25" value="" style="edgeStyle=none;html=1;" parent="H-oLl8-ljulFiYhovJ-D-1" source="H-oLl8-ljulFiYhovJ-D-26" target="H-oLl8-ljulFiYhovJ-D-7" edge="1">
                    <mxGeometry relative="1" as="geometry"/>
                </mxCell>
                <mxCell id="H-oLl8-ljulFiYhovJ-D-26" value="Recalculated Weights&lt;br&gt;for iterations" style="whiteSpace=wrap;html=1;rounded=1;" parent="H-oLl8-ljulFiYhovJ-D-1" vertex="1">
                    <mxGeometry x="150" y="316" width="120" height="60" as="geometry"/>
                </mxCell>
                <mxCell id="H-oLl8-ljulFiYhovJ-D-27" value="" style="edgeStyle=elbowEdgeStyle;elbow=vertical;endArrow=classic;html=1;entryX=0.5;entryY=1;entryDx=0;entryDy=0;" parent="H-oLl8-ljulFiYhovJ-D-1" source="H-oLl8-ljulFiYhovJ-D-23" target="H-oLl8-ljulFiYhovJ-D-21" edge="1">
                    <mxGeometry width="50" height="50" relative="1" as="geometry">
                        <mxPoint x="293" y="575.2893218813452" as="sourcePoint"/>
                        <mxPoint x="293" y="525.2893218813452" as="targetPoint"/>
                    </mxGeometry>
                </mxCell>
            </root>
        </mxGraphModel>
    </diagram>
</mxfile>